<?xml version="1.0" encoding="utf-8"?>
<!-- Generator: Adobe Illustrator 15.0.2, SVG Export Plug-In . SVG Version: 6.00 Build 0)  -->
<!DOCTYPE svg PUBLIC "-//W3C//DTD SVG 1.1//EN" "http://www.w3.org/Graphics/SVG/1.1/DTD/svg11.dtd">
<svg version="1.1" id="Layer_1" xmlns="http://www.w3.org/2000/svg" xmlns:xlink="http://www.w3.org/1999/xlink" x="0px" y="0px"
	 width="800px" height="388.33px" viewBox="0 0 800 388.33" enable-background="new 0 0 800 388.33" xml:space="preserve">
<g>
	<path fill="#3C3C3C" d="M9.289,100.161c0.571,0.218-2.472,1.348-3.99,1.348c-1.523,0-4-0.674-3.613-1.575
		c0.378-0.901,2.663-1.121,4.944-0.901C6.63,99.032,8.718,99.934,9.289,100.161z M316.79,258h0.348c-0.029,1-0.563,3-1.124,4h-0.271
		c-0.429,1-0.866,2-1.087,3h0.292c-0.024,0-0.064,0.481-0.075,0.548c-0.109,0.66-1.228,2.452-2.708,4.452h-0.173
		c-0.787,1-1.68,2-2.602,3h0.123c-0.242,0-0.484,0.269-0.726,0.498c-1.292,1.221-1.627,2.502-1.612,3.502h-0.353
		c-0.033,1,0.271,2,0.49,3h0.415c0.048,0,0.091,0.131,0.112,0.272c0.096,0.699-0.415,2.728-0.854,3.728h-0.294
		c-0.31,2-0.589,3-0.625,3h0.356c0.007,1,0.023,0.653,0.083,0.774c0.437,0.859-0.247,2.226-1.102,4.226h-0.223
		c-0.299,0-0.622,1.035-0.935,1.468c-0.309,0.426-0.586,0.532-0.847,1.532h0.255c-0.655,1-1.185,2.933-1.709,3.865
		c-0.079,0.145-0.188,0.135-0.302,0.135h-0.161c-0.855,1-3.213,0.431-5.409,1.079c-2.281,0.674-3.429,1.105-3.429,1.105
		s-1.556,0.842-3.281,1.937c-0.009,0.007-0.017,0.034-0.025,0.039c-0.161,0.103-0.324,0.303-0.485,0.407
		c-0.757,0.5-1.503,1.478-2.123,1.969c-0.308,0.238-0.505,0.464-0.643,1.464h-0.196c-0.555,0-0.395,2-0.115,3h0.415
		c0.319,1,0.681,2.289,0.154,3.427c-0.167,0.365-0.328,0.573-0.487,0.573h-0.195c-0.995,2-1.855-0.003-2.885,2.63
		c-0.053,0.137-0.102,0.37-0.154,0.37h0.256c-0.562,1-1.039,1.213-1.505,1.474c-0.397,0.323-0.777,0.317-1.175,0.524
		c-0.483,0.377-0.858,2.002-1.138,2.002h-0.284c-0.29,1-0.485,1.685-0.583,2.595c-0.013,0.128-0.054,0.405-0.084,0.405h0.306
		c-0.408,2-1.651,3-3.29,5h-0.142c-0.427,0-0.875,0.459-1.352,0.98c-2.473,2.689-3.997,1.891-6.656,0.988
		c-2.106-0.71-2.308-5.283-2.489-6.758c-0.372,1.123-0.998,3.788-1.152,4.788h-0.328c-0.084,0-0.104,0.924-0.006,1.103
		c0.182,0.321,0.886,0.897,1.671,1.897h0.589c0.791,1,1.62,1.318,2.071,1.635c0.854,0.604,0.757,1.365,0.182,2.365h-0.231
		c-0.094,0-0.178,0.39-0.307,0.581c-0.313,0.461-0.854,1.419-1.432,2.419h0.22c-0.788,2-1.62,2.294-2.043,2.415
		c-0.011,0.003-0.043-0.209-0.057-0.206c-0.112,0.106-0.216,0.179-0.3,0.205c-0.763,0.224-6.656,1.193-7.797,0.519
		c-0.214-0.126-0.4,0.309-0.573,0.362c-0.221,0.25-0.39,0.705-0.495,1.705h-0.285c-0.182,0-0.25,1.359-0.17,1.937
		c0.049,0.349,0.149,0.063,0.233,1.063h0.41c0.142,0,0.168,0.473-0.37,0.586c-0.151,0.239-0.495-0.188-1.222-0.344
		c-1.617-0.347-3.668-1.386-4.527-1.318c-0.021,0.048-0.062,0.094-0.062,0.164c0,1.129,0.571,3.93,1.709,3.93
		c1.108,0,2.205-0.018,1.748,0.982h-0.29c-0.025,0-0.047,0.217-0.098,0.358c-0.372,1.016-1.132,1.642-1.831,2.642h0.133
		c-0.301,0-0.583,0.826-0.8,1.021c-0.644,0.568-1.425,1.979-2.791,3.979h-0.147c-0.313,0-0.648,0.718-1.032,1.035
		c-0.977,0.806-1.446,0.965-1.627,1.965h0.297c-0.073,0,0.01,0.084,0.165,0.357c0.38,0.672,3.231-0.013,3.802,0.436
		c0.363,0.287,0.03,2.207-0.455,3.207h-0.264c-0.294,1-0.659,1.439-0.968,1.713c-0.243,0.215-0.756,0.287-1.366,1.287h0.111
		c-1.259,1-2.868,2.418-3.714,2.99c-0.403,0.272-0.673,1.01-0.859,1.01h-0.276c-0.381,1-0.444,2-0.344,3h0.383
		c0.038,1,0.085,0.811,0.147,1.023c0.233,0.834,1.485,2.977,2.812,3.977h-0.587c0.891,1,1.835,1.659,2.551,1.941
		c1.637,0.645,4.961,0.059,4.934,1.059h0.184c-0.053,0-0.145-0.549-0.217-0.51c-0.509,0.66-4.525,0.816-5.084,1.039
		c-0.571,0.224-3.616,1.072-5.138,1.072c-1.52,0-4.375-1.809-4.946-1.809c-0.57,0,0.385-0.87,2.283-2.664
		c1.362-1.288,0.384-2.582-0.421-2.362c-0.16,0.186-0.297,0.877-0.362,1.298c-0.019,0.116-0.042,0.936-0.063,0.936h-0.312
		c-0.388,2-1.138,2.432-2.073,2.432c-0.956,0-2.096-2.062-2.666-2.735c-0.569-0.676-3.043-1.407-2.659-4.104
		c0.378-2.698-1.143-2.503-2.284-3.629c-1.143-1.12,1.522-2.035,1.141-3.162c-0.381-1.119-2.092-0.453-2.284-2.027
		c-0.189-1.57,1.521-3.822,1.713-4.495c0.19-0.677-1.143-2.026-1.333-3.149c-0.188-1.127,0.763-2.246,2.093-4.041
		c1.332-1.803,2.281-4.049,2.281-4.723c0-0.672-0.949-3.146-0.949-4.943c0-1.792,0.949-2.467,1.333-4.942
		c0.379-2.473-1.333-1.57-1.333-3.596c0-2.02,1.903-1.349,1.521-3.368c-0.38-2.021,0.953-3.372,1.522-4.722
		c0.569-1.349,1.14-3.593,1.903-5.167c0.761-1.575-0.763-5.165-0.763-5.843c0-0.669,2.472-1.572,1.333-2.919
		c-1.141-1.353,0.996-1.797,2.14-2.922c1.139-1.127-0.807-4.943-0.237-8.985c0.569-4.048,1.139-11.012,1.139-11.685
		c0-0.678,0.191-3.371-0.761-5.17c-0.948-1.803-2.089-3.149-3.422-3.822c-1.332-0.674-3.043-2.7-3.998-2.919
		c-0.947-0.229-6.702-2.12-6.702-5.271c0-3.145-2.042-5.742-2.424-7.988c-0.381-2.242-3.231-7.188-3.424-9.434
		c-0.189-2.246-4.184-2.918-4.753-5.394c-0.57-2.472,0.847-4.073,1.224-5.646c0.383-1.575-0.275-5.131-0.461-6.256
		c-0.192-1.123,1.708-4.826,2.85-5.502c1.139-0.673,3.237-3.015,3.992-3.015c0.765,0,0.573-2.451,1.333-4.924
		c0.762-2.472-0.379-5.785-0.949-6.24c-0.57-0.445-1.139-3.268-2.095-4.163c-0.688-0.655-1.876-0.144-2.476-0.063
		c0.015,0.182,0.028,0.535-0.03,1.535h-0.328c-0.061,0-0.335,1.01-1.349,1.68c-1.71,1.119-2.092-0.761-2.661-1.432
		c-0.571-0.676-2.663-0.964-3.614-2.085c-0.951-1.129-2.473-2.728-3.616-3.401c-1.141-0.675-3.915-1.274-3.722-3.973
		c0.189-2.691-1.41-4.361-2.173-4.811c-0.758-0.457-2.278-1.576-3.23-0.9c-0.95,0.671-2.662-1.346-3.994-1.123
		c-1.332,0.227-3.995-2.688-4.945-3.814c-0.949-1.123-1.71-2.426-3.421-2.426c-1.616,0-1.886,1.286-2.865,2.286h0.193
		c-0.005,0-0.01-0.276-0.016-0.271c-0.177,0.246-0.369,0.193-0.567,0.254c-1.132,1.031-2.677-1.411-3.212-2.045
		c-0.57-0.67-3.343,0.422-5.435,0.422c-2.091,0-3.046-4.311-3.121-5.185c-0.288-3.354-6.086-3.38-7.418-4.277
		c-1.333-0.901-2.665-4.276-2.095-5.169c0.57-0.9-0.948-3.824-0.948-3.824s-2.665-3.593-3.613-3.593
		c-0.951,0-3.994-6.28-5.708-8.079c-1.712-1.797-5.701-5.835-6.464-7.855c-0.711-1.893-0.943-4.44-2.527-3.505
		c-1.088,0.922-0.997,2.127-0.353,3.127h-0.493c0.422,1,1.183,1.519,2.04,2.327c0.23,0.218,0.424,0.673,0.598,0.673h0.517
		c0.956,2,1.179,3,2.715,5h-0.563c0.262,0,0.558,0.649,0.918,0.983c0.729,0.678,1.159,1.017,1.442,2.017h0.444
		c0.626,1,0.343,2.833,1.134,3.61c0.172,0.17,0.414,0.39,0.687,0.39h-0.622c0.853,1,2.253,2,2.971,3h0.485
		c0.397,1,0.48,1.021-0.101,1.63c-0.179,0.188-0.357,0.025-0.535,0.097c-1.65,1.355-3.268-2.471-4.005-2.686
		c-0.759-0.227-2.472-0.706-2.28-2.051c0.194-1.347-1.521-2.491-2.853-4.51c-1.328-2.022-1.899-0.906-3.61-0.906
		c-1.713,0-0.192-2.476,0.756-3.6c0.955-1.123-0.948-2.698-2.087-3.145c-1.141-0.458-2.667-5.619-4.185-8.767
		c-1.524-3.149-2.665-4.716-4.375-4.498c-1.709,0.229-4.539-1.478-5.68-2.379c-1.139-0.901-0.787-5.93-2.687-8.177
		c-1.904-2.249-3.616-6.512-3.424-8.988c0.189-2.472,0.759-8.76,0.759-10.329c0-1.576-1.467-4.56-1.467-5.233
		c0-0.673-0.436-2.625-1.194-2.845c-0.76-0.226-3.233-2.419-4.943-2.419c-1.709,0-2.472-3.16-1.901-4.736
		c0.57-1.569-1.521-4.21-2.473-4.21s-2.473-2.817-3.043-4.387c-0.57-1.575-2.091-1.109-1.71-0.212C99.327,93.844,99.36,94,99.378,95
		h0.37c0.026,0-0.067,1.479,0.612,1.801c0.504,0.236,0.947,1.199,1.146,2.199h-0.398c0.226,1,0.234,1.612-0.153,1.838
		c-0.762,0.455-2.474-1.678-4.375-2.799c-1.903-1.123-1.141-5.68-1.141-6.803c0-1.124-2.663-2.273-3.805-2.273
		c-1.141,0-2.28,0.222-2.471-2.699c-0.191-2.922-3.615-4.48-4.756-4.48c-1.139,0-7.547-2.147-9.449-2.147
		c-1.899,0-4.809-2.676-5.953-1.775c-1.141,0.898-3.231-1.153-4.373-1.153c-0.754,0-0.758,1.292-1.272,3.292h0.261
		c-0.263,0-0.633,0.637-1.264,1.109c-0.089,0.067-0.17-0.381-0.256-0.33c-0.038,0.03-0.061,0.015-0.1,0.045
		c-1.949,1.468-3.262-1.058-4.357-0.499c-0.2,0.181-0.437,0.379-0.694,0.539c-1.293,0.949-3.428,1.636-2.587-0.749
		c0.949-2.698,0.949-2.731-0.569-2.057C53.144,78.345,52.735,79,52.442,80h0.214c-0.303,1-0.41,1.218-0.41,1.795
		c0,0.762-1.21,2.205-1.998,2.205H50.18c-0.516,1-0.951,0.417-0.951,0.417s2.47,0.301,3.425,0.073c0.689-0.158,0.47,1.51-0.065,2.51
		h0.223c-0.171,1-0.361,0.166-0.565,0.31c-0.596,0.424-1.345,1.053-2.198,1.526c-0.602,0.417-1.26,0.683-1.962,0.478
		c-1.519-0.449-1.711-1.95-2.658-2.177c-0.099-0.021-0.2,0.451-0.303,0.495C44.416,88.284,43.466,90,41.678,92h-0.092
		c-0.467,0-0.974,0.182-1.578,0.538c-3.424,2.025-3.903-1.364-5.234-0.69c-1.33,0.672-6.085,2.74-7.797,2.962
		c-1.71,0.223-1.332-2.045-0.376-2.045c0.553,0,2.008-0.765,3.317-0.765h-0.074c0.786-1,1.553-1.499,2.096-1.835
		c0.055-0.036,0.128-0.604,0.172-0.635c0.02-0.014,0.059-0.063,0.08-0.077c0.098-0.063,0.206,0.157,0.276,0.107
		c0.861-0.608,4.349-1.56,5.853-2.56h0.071c1.145,0,3.038-2.122,2.28-3.47c-0.475-0.841-1.614-0.322-2.404,0.152
		C38.23,83.705,38.188,84,38.157,84h-0.004c-0.414,1-0.716,0.136-0.716,0.136s-1.903-2.268-2.473-2.717
		c-0.073-0.058-0.155-0.122-0.243-0.101c-0.539,0.497-1.114,1.607-1.114,1.607s-0.087,0.007-0.201-0.027
		c-0.093,0.165-0.155,0.363-0.155,0.363s-2.469-0.034-1.899-2.503c0.57-2.471-1.331-1.758-1.71-0.758h0.22
		c-0.256,0-0.818,0.304-1.426,0.677c-1.075,0.75-2.474,0.787-2.6,0.058c-0.192-1.124-3.043-3.436-3.805-5.232
		c-0.761-1.794,0.762-2.052,2.473-3.628c1.711-1.57,4.185-2.036,6.278-1.809c2.094,0.223,3.421-2.705,2.662-2.934
		c-0.615-0.18-1.596-0.353-2.552,0.171c-0.108,0.082-0.217,0.163-0.323,0.267c-0.163,0.161-0.367,0.288-0.587,0.397
		c-1.249,0.921-3.766,0.735-3.766,0.735s-4.184,0.004-5.894-1.343c-1.71-1.353-2.662-3.365-2.662-3.365s3.424-1.557,6.086-1.777
		l2.09-1.097c0,0,0,0.064,1.14,1.193c1.142,1.12,3.044,1.945,4.753,2.172C31.81,64.499,31.868,65,31.942,65h0.382
		c1.089,0,0.939-1.758-0.214-2.923c-1.329-1.348-1.714-1.454-2.854-1.674c-1.139-0.227-1.329-1.526-4.371-1.526
		c-3.043,0-2.662-1.354-3.043-2.256C21.551,55.935,23.389,55,24.62,55h-0.206c0.617-1,1.193-1.146,1.458-1.068
		c0.762,0.229,3.551-1.064,3.551-1.064s4.945-2.296,5.516-1.851c0.574,0.446,3.424-0.466,4.754-0.921
		c0.09-0.03,0.166-0.095,0.25-0.143c0.949-0.829,1.485-2.503,1.485-2.503s1.713,1.009,2.664,2.127C44.096,49.579,44.1,50,44.103,50
		h0.646c0.666,1,1.622,0,2.368,0h0.544c0.013,0,0.035-0.007,0.047-0.007c0.018,0,0.057,0.007,0.078,0.007h1.738
		c1.056,0,2.262,0.493,2.262,0.493S53.589,50,55.117,50h2.884c1.954,1,4.707,1.363,5.846,1.703c1.52,0.446,9.511-1.702,10.272-1.702
		c0.76,0,3.417,4.396,5.891,3.723C82.402,53.072,83.542,54,84.131,55h-0.783c0.197,0,0.361-0.486,0.49-0.435
		c0.569,0.227,1.139-0.345,2.095,1.002c0.947,1.352,1.898,0.16,3.23-0.735c1.33-0.901,1.141-1.834,1.141-1.834
		s0.031-0.022,0.359-0.083c0.003-0.095-0.003-0.169-0.003-0.169s0-0.003,1.145-0.221c1.139-0.227,1.899,0.446,5.131,0.673
		c1.526,0.104,2.156-0.042,2.642-0.318c0.215-0.157,0.458-0.329,0.766-0.52c0.316-0.227,0.708-0.462,1.346-0.714
		c2.285-0.9,4.567,1.147,5.33,0.929c0.029-0.008,0.061,0.022,0.091,0.01c0.416-0.343,0.854-0.753,1.237-0.921
		c0.359-0.3,0.695,0.023,0.951,0.423c0.387,0.611,0.94,1.914,1.262,2.914h-0.481c0.224,0,0.383,0.045,0.383,0.045
		s1.492-1.896,2.516-2.498c0.436-0.293,0.84-0.529,1.075-0.529c0.758,0,5.105,0.494,6.438,0.275c1.329-0.227,4.4,0.71,5.541,1.833
		C126.107,54.2,126.208,55,126.297,55h-0.671c0.014,0,0.036-0.667,0.05-0.653c1.141,1.125,3.995,0.332,5.517,1.454
		c1.518,1.13,3.042-0.946,2.279-1.396c-0.761-0.452-2.662-2.256-2.662-2.256s-2.854-4.014-3.232-4.692
		c-0.378-0.673-0.947-0.346-1.71,1.451c-0.114,0.268-0.289,1.093-0.491,1.093h0.07c-0.046,0-0.117-0.37-0.166-0.34
		c-1.184,1.027-3.58,0.783-6.262,0.972c-3.233,0.227-1.139-1.851-4.753-2.079c-3.613-0.227-2.28-1.816-1.14-1.816
		s1.899-2.691,2.281-4.266c0.38-1.575,1.71-1.309,4.375-1.08c2.659,0.223,3.421-0.365,6.086,0.09
		c2.663,0.446,2.473-0.911,5.13-0.693C133.481,41,132.524,42,133.604,43h0.627c1.508,1,2.459,0.28,4.543,1.399
		c2.091,1.124,1.332,0.642,2.283,0.868c0.953,0.223,4.182-0.475,6.083-0.703c1.903-0.222,3.423-0.153,4.375,1.197
		c0.199,0.281,0.34,1.238,0.464,1.238h-0.457c0.479,1,0.583,2,1.3,3h0.583c0.068,0,0.127-0.276,0.207-0.211
		c0.034,0.028,0.055-0.26,0.083-0.239c-0.02-1.051-1.203-4.375-1.203-5.728c0-0.492,0.21-0.749,0.535-0.837
		c0.146-0.188,0.38-0.286,0.678-0.291c-1.341-0.122-2.961-0.479-3.747-0.651c-1.396-0.3-4.569-0.304-5.709,0.146
		c-1.142,0.451-3.548,0.449-4.438-0.002c-0.885-0.45-1.013-2.244-1.902-2.995c-0.886-0.748-2.659,1.195-3.551,1.497
		c-0.886,0.3-2.535-1.794-2.404-3.145c0.124-1.347-3.677-0.298-4.438,0.148c-0.762,0.447-3.427,0.448-5.076,0.448
		s-3.044,0.018-2.786-0.893c0.151-0.535,0.444-0.827,0.803-0.994c0.557-0.508,1.431-0.432,2.183-0.429
		c0.071-0.48-0.79-1.551-0.2-1.551c0.762,0,5.58-1.932,8.37-2.229c2.792-0.298,3.805,1.491,4.06,2.386
		c0.023,0.085,0.112,0.569,0.228,0.569h0.876c1.68,1,5.59,0.404,5.59,0.404s2.919,1.748,3.426,2.045
		c0.368,0.215,1.204-0.021,1.878-0.365c0.101-0.069,0.22-0.143,0.3-0.219c0.503-0.473,0.86-1.146,2.001-1.74
		c0.241-0.165,0.505-0.125,0.844-0.125h1.803c0.854,1,1.085,1.618,1.918,1.835c1.14,0.304,1.526-0.268,2.789-1.015
		c1.271-0.746,2.026,1.264,2.026,1.264S158.271,39,158.047,40h-0.311c-0.131,0-0.252,1.281-0.299,1.623
		C157.341,42.281,156.713,42,156.23,43h0.174c-0.094,0-0.199-0.401-0.259-0.254c-0.057,0.134-0.215-0.275-0.414-0.213
		c-0.19,0.279-0.776,0.319-1.543,0.286c0.911,0.136,2.106,0.592,3.035,0.592c1.71,0,3.61-0.362,3.991,0.537
		c0.268,0.634-1.053,2.053-1.261,3.053h-0.304c-0.168,1-0.134,1.166,0.451,1.857c0.372,0.441,0.715,1.143,1.044,1.143h0.599
		c1.071,1,1.979,1.141,3.084,1.141c1.522,0,4.947,0.624,3.421,3.095c-0.045,0.073-0.111,0.763-0.16,0.763h-0.179
		c-0.009,0-0.008-0.441-0.017-0.427c-1.517,2.47-5.509,2.158-6.841,2.158c-0.697,0-1.646,0.269-2.319,1.269h0.041
		c-0.416,0-0.63,0.104-0.409,0.628c0.57,1.347,3.614,0.088,5.703,0.088c2.094,0,8.559,0.618,10.268-0.055
		c0.079-0.032,0.131-0.104,0.201-0.143c1.031-0.983,0.53-3.091-1.126-3.677c-1.21-0.429-1.027-1.079-0.249-1.417
		c0.396-0.346,1.206-0.449,2.128-0.233c1.903,0.45,3.803-0.202,3.422,0.471c-0.091,0.163-0.123,0.337-0.125,1.337h-0.312
		c-0.086,0,0.143,1,0.23,3h0.372c0.007,0,0.028-0.427,0.028-0.275c0,1.797,0.569,2.338,1.898,1.884
		c0.085-0.028,0.148-0.133,0.221-0.169c0.618-0.532,0.747-1.396,1.481-1.729c0.183-0.166,0.407-0.306,0.727-0.359
		c0.068-0.012,0.106-0.06,0.165-0.084c0.671-0.772,0.348-2.791-0.288-4.472c-0.756-2.021-1.33-3.109-1.139-4.229
		c0.192-1.123,2.284-1.013,3.424,0.107c0.26,0.258,0.54,1.327,0.816,1.327h0.545c0.867,1,1.656,2.506,1.656,2.506
		S189.778,53,190.749,55h-0.537c0.355,0,0.677,0.316,0.883,0.805c0.762,1.802,0.952,0.896,2.474-0.229
		c1.521-1.124,1.902-0.48,3.234,0.642c0.367,0.309,0.551,0.781,0.639,1.781h0.39c0.127,1-0.294,1.574-0.294,2.029
		c0,0.361,0.539-0.202,1.101-0.506c0.363-0.278,0.69-0.611,0.825-1.088c0.146-0.515,0.482-0.351,0.867-0.574
		c0.286-0.252,0.639,0.139,1.014,0.139h0.328c0.227,0,0.453-0.849,0.647-0.941c0.949-0.451,0.949-3.736,0.949-3.736
		s-2.474-0.733-4.946-0.506c-2.469,0.218-3.231-0.253-5.132-1.828c-1.903-1.567-0.762-2.702-1.714-4.271
		c-0.431-0.713,0.176-1.274,1.173-1.815c1.158-0.745,3.191-1.371,4.699-2.192c2.47-1.347,4.942-0.125,4.372,3.246
		c-0.042,0.249-0.078,1.045-0.118,1.045h-0.313c-0.519,3-0.739,2.081,1.979,1.439c2.854-0.678-0.193-3.875,1.138-4.102
		c0.013-0.002,0.031-0.063,0.044-0.065c0.047-0.111,0.137-0.215,0.312-0.245c1.333-0.224,4.754-0.895,5.898-0.672
		c1.141,0.227,7.415-0.643,8.94-0.643c1.519,0,3.991,1.897,5.703,3.021c0.41,0.27,0.989,1.266,1.64,1.266h-0.829
		c2.079,1,5.312,2.195,6.25,2.749c0.119,0.07,0.33,0.251,0.585,0.251h1.145c2.645,1,7.906,1.878,8.514,2.06
		c0.483,0.145,0.661,0.94,0.919,2.94h-0.399c0.159,0,0.341,1.848,0.647,2.754c0.033,0.095,0.079-0.754,0.116,0.246h0.474
		c0.887,1,2.685-0.38,3.379-0.38c0.762,0,3.423,1.356,4.188,2.477c0.417,0.62,2.333,1.903,3.973,1.903h-1.314
		c1.694,0,3.45,0.729,3.45,0.729S257.12,64,256.481,65h0.181c-0.058,0-0.118-0.351-0.167-0.293
		c-0.199,0.236-0.509,0.064-0.853,0.273c-0.423,0.3-0.973,0.529-1.549,0.871c-0.216,0.139-0.434,0.253-0.643,0.417
		c-0.037,0.028-0.075,0.038-0.112,0.063c-0.081,0.059-0.165,0.128-0.245,0.191c-1.145,0.902-2.473-0.163-3.999-1.287
		c-1.518-1.124-4.183-1.42-4.752-0.974c-0.081,0.064-0.104,0.738-0.149,0.738h0.242c-0.087,0,0.18,0.85,0.455,1.339
		c0.374,0.666,2.801,1.661,4.329,2.661h-0.646c0.113,1,0.231,0.192,0.336,0.284c0.968,0.861,1.164,1.716,1.229,2.716h0.368
		c0.024,1,0.031,0.702,0.089,1.263c0.061,0.58-0.091,0.515-0.367,0.418c-0.137,0.959-1.688-1.141-3.413-1.546
		c-0.435-0.102-0.77-0.083-1.043,0.037c-0.598,0.535-0.688,1.481-0.688,1.481s-0.128-0.016-0.314-0.031
		c-0.029,0.146-0.042,0.259-0.042,0.259s-2.477-0.208-3.616-0.208c-1.141,0,0,0.274-2.092-1.528
		c-0.819-0.702-1.254-0.146-1.555-0.146h0.124c-0.211,1-0.374,0.272-0.636,0.299c-0.191,0.237-0.4,0.204-0.783-0.099
		c-1.14-0.9-2.282-2.307-2.855-1.857c-0.574,0.452-2.471-2.046-3.615-1.819c-1.14,0.223-5.702-0.678-6.843-0.227
		c-1.143,0.45-2.094,0.474-3.043,0.924c-0.954,0.451-1.333-3.088-0.762-4.209c0.18-0.354,0.468-0.21,0.811-0.386
		c0.042-0.037,0.065,0.374,0.112,0.374h0.239c0.534,0,1.24,0,2.131,0h1.476c1.181,0,1.816-0.203,2.238-0.412
		c0.233-0.247,0.393-0.975,0.6-1.383c0.423-0.83,0.85-1.722,2.123-2.463c0.01-0.006,0.021-0.044,0.031-0.051
		c0.005-0.003,0.01-0.022,0.016-0.025c0.491-0.332,1.123-0.657,1.989-0.949c0.258-0.087,0.451-0.175,0.612-0.259
		c0.694-0.661-1.302-1.176-1.917-1.541c-0.527-0.309-1.141-0.818-1.659-0.671c-0.095,0.109-0.188,0.246-0.269,0.439
		c-0.571,1.35-1.904,2.924-1.904,2.924s-0.068,0.001-0.167-0.001c-0.113,0.143-0.189,0.233-0.189,0.233s-1.52,0.001-3.612-0.226
		c-1.663-0.18-1.042-0.778-0.24-1.244c0.25-0.179,0.557-0.343,0.844-0.483c0.891-0.709,1.794-3.02,0.917-3.641
		c-0.947-0.677-1.333-1.096-3.041-0.649c-1.713,0.45-0.573-1.52-1.713-2.193c-0.19-0.112-0.325-0.048-0.44-0.07
		c-0.065,0.304,0.034,1.305,0.034,1.776c0,0.075-0.027,0.889-0.049,0.889H217c0,0,0-1.367,0-1.355c0,0.898-1.351,0.791-1.351,0.791
		s-2.431-0.335-3.379,0.116c-0.951,0.45-2.603,1.826-2.029,2.505c0.073,0.085,0.229,0.942,0.339,0.942h0.799
		c0.798,0,1.907,0.059,2.32,1.525c0.262,0.929-0.242,0.931-0.916,1.326c-0.801,0.647-2.124,0.822-2.48,0.959
		c-0.574,0.228-2.854,1.113-2.854,1.113s-2.281-0.657-4.182-0.657c-1.904,0-2.474,0.276-2.093,1.176
		c0.381,0.9,1.329,0.821,1.899,0.821c0.17,0,0.291,0.736,0.42,0.736h0.601c0.286,0,0.708,0.453,1.619,0.212
		c0.265-0.069,0.468-0.212,0.648-0.212h0.215c0.193,0,0.343,0,0.519,0h0.663c0.2,0,0.448-0.027,0.809,0.398
		c1.518,1.797,3.043,1.455,5.516,3.03c0.213,0.136,0.339,0.571,0.477,0.571h-0.622c1.994,2-0.646,2.91-1.923,2.91
		c-1.331,0-1.331-1.51-2.092-2.856c-0.763-1.351-3.802,0.163-3.802,0.163s-2.477,1.548-3.803,1.548
		c-1.332,0-2.284-0.235-0.573-1.806c1.694-1.555-1.999-1.54-2.084-3.714c-0.217,0.903-0.483,2.755-0.632,3.755h-0.323
		c-0.089,1-0.148,0.881-0.148,1.138c0,1.123-1.184-1.235-4.42-0.786c-2.202,0.304-2.664,1.647-4.043,2.647h0.13
		c-0.616,1-1.399,1.627-2.579,2.512c-1.481,1.116-2.279,1.488-2.703,2.488h-0.124c-0.997,1-0.591,1-0.31,3h0.396
		c0.009,0,0.02-0.433,0.028-0.369c0.384,2.92-0.708,3.264,1.002,3.715c0.264,0.07,0.459,0.653,0.631,0.653h-0.659
		c0.921,1,1.003,2,1.417,3h0.536c0.141,0,0.307,0.259,0.547,0.218c0.271-0.044,0.525-0.218,0.783-0.218h0.348c0.53,0,1.134,0,1.92,0
		h1.025c0.271,0,0.557-0.025,0.871,0.16c2.659,1.576,3.993,1.862,7.225,2.535c3.235,0.675,4.805,0.688,6.517,0.236
		c1.077-0.282,2.132,1.069,2.767,2.069h-0.53c0.473,0,0.781,1.421,0.781,2.087c0,0.357,0.063-0.087,0.152,0.913h0.446
		c0.323,0,0.842,0.606,0.707,2.029c-0.042,0.449,0.042,0.055,0.191,0.033c0.623-0.604,1.546-2.184,1.546-2.184
		s0.027,0.122,0.063,0.262c0.175-0.275,0.293-0.133,0.293-0.133s0.738,3,0.384,4h-0.306c-0.042,0-0.11-0.022-0.246,0.057
		c-0.756,0.446,0.192,2.147,1.144,1.928c0.951-0.227,2.285,0.638,3.424-0.492c1.141-1.119-0.57-4.467-0.57-5.818
		c0-1.348-1.144-1.934-1.712-3.284c-0.249-0.586,0.017-0.496,0.447-0.62c0.421-0.485,1.596,0.229,2.158,1.229h-0.538
		c0.075,0,0.155-0.497,0.215-0.391c0.764,1.347,2.092-0.315,3.421-1.439c1.334-1.124,1.334-3.208,1.334-3.208
		s-2.282-3.625-3.991-4.521c-1.15-0.605-1.172-0.917-0.556-1.185c0.174-0.232,0.793-0.409,1.667-0.64
		c0.115-0.03,0.204-0.062,0.29-0.095c0.425-0.484-0.567-1.299-0.262-3.261c0.356-2.312,0.389-3.802,1.168-3.988
		c0.135-0.163,0.296-0.227,0.517-0.227c0.951,0,4.373-0.592,7.229-0.366c2.852,0.227,4.185,3.109,6.086,3.335
		c0.763,0.088,1.706,0.986,2.604,0.986h-1.627c1.75,0,3.728,0.75,4.181,1.632c0.248,0.489-0.356,0.368-1.006,1.368h0.034
		c-0.733,0-1.36,0.581-0.702,1.466c1.327,1.797,2.79,0.656,4.123,1.329c0.743,0.376,1.545,0.363,2.404-0.155
		c0.575-0.441,1.176-1.067,1.804-2.054c1.714-2.695,2.468-2.516,3.039-2.065c0.128,0.1,0.422,0.479,0.789,1.479h0.543
		c0.995,1,2.455,3,3.418,4h-0.533c0.385,1,0.721,0.951,0.922,1.19c0.333,0.393,0.662,0.81,0.957,1.81h0.448
		c0.503,2,0.893,2.62,1.01,3.312c0.192,1.12,3.834,0.515,4.596,0.515c0.238,0,0.688,0.173,1.197,1.173h-0.67
		c0.984,0,2.357,2,2.903,3h0.459c0.033,0,0.083-0.421,0.102-0.352c0.386,1.347,1.144,1.596,3.613,2.269
		c1.12,0.305,1.206,1.083,0.934,2.083h-0.283c-0.247,1-1.237,2-1.576,3h0.25c-0.511,1-0.893,1.202-1.606,2.671
		c-0.758,1.573,0-0.1,0.952,0.574c0.292,0.208,0.531,0.755,0.763,0.755h-0.639c0.646,1,1.138,0.85,2.373,0.488
		c1.522-0.452,2.281,0.133,2.852,1.479c0.135,0.319,0.299,1.033,0.45,1.033h0.473c0.457,1,0.936,1.962,1.337,2.749
		c0.344,0.681,0.268,2.251-0.01,2.251h-0.228c-0.167,0-0.5,0.219-0.881-0.341c-0.638-0.952-2.486-0.645-3.052-0.519
		c-0.127,0.13-0.305,0.86-0.5,0.86h-0.068c-0.368,0-0.897,0.149-1.134-0.269c-0.378-0.674-1.139-1.987-2.473-1.541
		c-1.328,0.447-2.658-0.062-4.183,0.166c-1.521,0.218-2.09-0.933-1.14-1.834c0.953-0.893,1.14-4.28,3.043-5.631
		c1.902-1.348,1.333-3.375,0-3.375c-0.213,0-0.401,0.06-0.579,0.149c-0.719,0.607-1.174,1.757-1.727,2.085
		c-0.031,0.019-0.083,0.018-0.122,0.031c-0.077,0.078-0.154,0.15-0.234,0.198c-0.731,0.428-3.136-0.458-4.51,0.433
		c-0.641,0.508-1.41,1.587-1.905,1.587h-0.027c-0.754,1-1.188,0.662-0.403,0.926c1.33,0.45-1.901,2.124-3.041,2.124
		c-1.146,0-0.764-2.988-0.764-4.111c0-0.385-0.182-0.445-0.417-0.335c-0.375,0.309-0.748,0.732-0.748,0.732s-0.05-0.039-0.093-0.066
		c-0.154,0.163-0.263,0.286-0.263,0.286s-2.286-1.513-3.638-1.039c-0.061,0.049-0.137,0.072-0.19,0.136
		c-0.159,0.188-0.388,0.333-0.647,0.456c-1.407,1.042-5.046,0.897-6.291,2.156c-0.363,0.368-0.669,1.736-0.931,1.736h0.258
		c-0.631,2-0.946,2.881-0.946,2.881s1.143-0.811,3.423-1.485c2.281-0.673,2.091-0.249,3.99-1.37
		c0.142-0.084,0.283,0.975,0.425-0.025h0.104c1.217,0,2.392,0,3.383,0h0.658c0.199,1,0.39,0.286,0.569,0.559
		c1.328,2.02-0.57,3.394-0.57,3.394s0.136,1.048,0.344,1.048h-0.49c0.277,0,0.789,0.931,1.307,1.237
		c0.763,0.452,0.951-0.463,2.284-1.363c1.327-0.891,0.764,2.126,1.143,3.126h0.552c0.346,0,0.948-0.001,1.521-0.311
		c0.137-0.12,0.282-0.575,0.397-0.747c0.759-1.125,1.329-1.677,1.899-1.004c0.284,0.336,0.568,1.062,0.853,2.062h0.448
		c0.257,1,0.514,0.759,0.77,1.466c0.175,0.483-0.16,0.415-0.693,0.712c-1.02,0.848-3.833,1.1-4.416,1.271
		c-0.76,0.223-4.377,1.098-4.947,1.325c-0.569,0.22-2.468,2.235-3.993,2.235c-1.518,0-1.333-2.68-1.518-4.25
		c-0.086-0.706-0.518-0.427-0.983-0.183c-0.425,0.329-0.812,1.424-0.921,1.424h-0.243c-0.065,0-0.115-0.084-0.138-0.004
		c-0.188,0.673-1.901,0.543-3.232,0.762c-0.913,0.155-2.258,1.242-3.022,2.242h0.192c-0.259,1-0.425,1.156-0.425,1.629
		c0,1.068,0.938,2.371,1.587,3.371h-0.521c0.527,0,0.948,0.922,0.688,1.331c-0.57,0.9-4.966,0.485-6.299,0.035
		c-1.104-0.374-2.586,0.634-2.732,1.634h0.357c0.014,0,0.021-0.469,0.07-0.392c0.445,0.699,0.304,1.16-0.408,1.45
		c-0.231,0.247-0.594,0.364-1.088,0.282c-0.237-0.04-0.425,0.299-0.592,0.36c-0.367,0.42-0.381,1.299-0.118,2.299h-0.437
		c0.05,0,0.112,0.019,0.194,0.182c0.57,1.119-1.713,3.413-2.284,2.516c-0.569-0.893-1.7-0.697-1.709,0.303h0.392
		c0.095,1,1,3,2.008,5h-0.499c0.119,0,0.234-0.27,0.356-0.077c0.962,1.517-1.975,1.503-3.719,2.435
		c-0.167,0.109-0.342,0.534-0.465,0.658c-0.656,0.664-1.709,2.984-2.834,3.984H218.3c-0.893,1-1.837,2-2.683,3h0.05
		c-0.19,0-0.382-0.238-0.558-0.156c-0.018,0.009-0.037-0.375-0.055-0.365c-0.099,0.062-0.207,0.105-0.301,0.149
		c-0.125,0.059-0.244,0.392-0.366,0.467c-1.234,0.923-2.17,2.904-2.081,3.904h-0.367c-0.015,1,0.052,0.73,0.263,0.979
		c0.308,0.364,0.635,1.021,0.957,2.021h0.441c0.518,2,1.016,4,1.382,5h-0.426c0.114,0,0.222,0.736,0.312,0.983
		c0.17,0.471,0.208,1.017,0.15,2.017h0.336c-0.155,1-0.724,2.672-1.641,2.961c-0.227,0.181-0.47-0.188-0.75-0.224
		c-1.71-0.227-0.762-2.982-2.473-3.656c-1.71-0.674-2.662-4.75-3.043-7.45c-0.377-2.693-0.759-1.129-1.903-0.238
		c-1.141,0.904-2.279-1.789-2.85-2.464c-0.571-0.673-3.393,1.323-5.674,1.104c-2.28-0.227-3.454,0.543-3.454,1.218
		c0,0.11-0.017,0.749-0.043,0.749h0.312c-0.109,1-0.35,0.596-0.801,0.764c-0.366,0.361-0.961,0.301-1.942-0.329
		c-2.09-1.348-2.473-1.123-4.564-1.123c-1.869,0-3.579,0.688-4.193,0.688h0.188c-0.002,0-0.008-0.272-0.01-0.267
		c-0.31,0.732-1.735,2.026-2.977,2.796c-0.418,0.294-0.829,0.557-1.186,0.677c-0.193,0.065-0.412,0.57-0.638,0.699
		C177.475,165.066,177.229,166,177,166h-0.059c-1.095,1-2.039,2.021-1.249,2.33c0.249,0.099,0.433-0.33,0.578,0.67h0.454
		c0.399,1,0.263,3-0.274,4h-0.277c-0.035,0-0.062,0.219-0.1,0.31c-0.301,0.708-0.45,1.69-0.501,2.69h0.35c-0.046,2,0.06,3,0.231,5
		h-0.382c0.035,0,0.07,0.662,0.109,0.986c0.088,0.722,0.284,1.014,0.547,2.014h0.451c0.804,1,2.192,3,3.578,4h-0.595
		c0.26,0,0.519,0.032,0.775,0.281c2.092,2.026,2.855,2.356,4.943,0.557c2.095-1.796,2.851-0.707,3.424-0.481
		c0.569,0.225,2.09-1.101,1.521-3.123c-0.569-2.021,0.762-3.723,2.474-3.496c1.709,0.227,4.182-0.204,5.515,0.021
		c0.485,0.081,0.889,1.241,1.113,2.241h0.405c0.309,1,0.098,3-1.106,4h-0.163c-0.085,0-0.149,0.227-0.249,0.312
		c-0.891,0.768-1.182,1.688-1.268,2.688h0.338c-0.067,1,0.16,2.306-0.047,3.397c-0.06,0.317-0.155,0.603-0.26,0.603h-0.264
		c-0.542,2-1.695,1.608,0.168,1.608c2.096,0,1.526,0.312,2.854,0.533c1.329,0.229,2.663-1.14,3.995-1.367
		c0.696-0.112,1.959,1.226,2.929,2.226h0.533c0.783,1,1.328,2.429,1.076,3.226c-0.136,0.428-0.271,0.774-0.396,1.774h-0.295
		c-0.206,1-0.375,2-0.494,3h0.334c-0.111,1-0.174,2.039-0.101,3.172c0.026,0.402,0.064,0.828,0.11,0.828h-0.385
		c0.236,2,0.763,3,1.118,3h0.473c0.004,0,0.011-0.345,0.015-0.332c0.384,0.899,1.901,2.687,3.612,1.785
		c1.173-0.617,2.3-1.164,3.096-1.716c0.22-0.182,0.418-0.077,0.542-0.272c0.225-0.354,0.915,0.535,1.647,0.535h0.766
		c1.008,1,1.953,1.091,1.749,1.451c-0.367,0.647,1.203,1.034,2.34,0.473c0.985-0.683,1.57-1.813,2.627-3.479
		c0.895-1.412,2.244-2.685,3.249-3.276c0.424-0.302,0.809-0.522,1.103-0.593c0.101-0.023,0.224-0.088,0.353-0.162
		c0.62-0.434,1.413-1.105,2.214-1.587c0.76-0.517,1.541-0.874,2.186-0.681c1.525,0.444-0.571,2.994-0.76,4.345
		c-0.005,0.041-0.007,0.511-0.013,0.511h-0.322c-0.004,0-0.018,0.073-0.021,0.098c-0.088,0.627-0.09,1.902,0.006,2.902h0.374
		c0.118,1,0.35,1.754,0.718,1.895c0.317-0.707,0.239-3.1,0.994-4.709c0.594-1.264,1.545-2.164,2.417-2.672
		c0.657-0.478,1.299-0.471,1.745-0.471c0.544,0,1.027,1.957,1.592,2.957h-0.473c0.449,1,0.945,1.311,1.563,0.684
		c1.333-1.347,3.995-1.051,4.565,0.299c0.378,0.896,0.74,2.019,0.95,2.019h0.416c0.281,0,0.729-1.003,0.729-1.78
		c0-0.459,0.522-0.22,1.256-1.22h-0.112c0.993,0,2.722-1,4.021,0h-0.799c0.2,0,0.398-0.181,0.581-0.051
		c1.898,1.347,1.138,1.567,2.086,1.794c0.952,0.225,1.904-2.969,2.474-3.197c0.037-0.013,0.055,0.026,0.083,0.044
		c0.098-0.137,0.191,0.048,0.273,0.015c0.203-0.082,0.255,1.396,0.186,1.396h-0.342c-0.045,1-0.27,2-0.66,3h0.268
		c-0.22,1-0.48,0.812-0.784,1.274c-1.329,2.023,1.139,1.148,1.139,1.148s0,0.038,0.57,0.711c0.57,0.674,2.474-0.252,3.235,1.096
		c0.029,0.052,0.065,0.771,0.097,0.771h-0.526c0.023,0,0.052,0.065,0.073,0.101c0.591,1.045,1.523,0.899,2.443,2.899h0.506
		c0.217,0,0.433,0.134,0.643,0.588c1.141,2.466,2.445,0.082,4.724-0.364c1.679-0.334,3.881,1.776,5.838,3.776h-0.582
		c0.787,1,1.544,1.715,2.212,2.57c0.111,0.144,0.188,0.43,0.287,0.43h0.517c1.567,2,1.606,4,2.575,5h-0.708
		c0.197,0,0.426-0.17,0.751-0.17c1.216,0,1.696,1.17,1.844,2.17h0.385c0.019,1,0.029,0.131,0.029,0.261
		c0,0.461-0.899,1.116-2.03,1.805c-1.139,0.742-2.614,1.465-3.651,1.711c-0.179,0.041-0.324,0.475-0.468,0.546
		c-0.071,0.059-0.158,0.679-0.214,0.679h-0.078c-1.036,1-0.639,1.764,1.9,1.201c2.81-0.623,1.921-2.152,3.258-2.865
		c0.175-0.148,0.385,0.044,0.712-0.072c1.247-0.443,2.472,0.736,2.703,1.736h-0.404c0.214,1,0.104,1.533-0.561,2.58
		c-0.091,0.143-0.189,0.42-0.289,0.42h0.167c-0.647,1-1.403,0.727-1.972,1.09c-0.204,0.141-0.391-0.162-0.558-0.056
		c-0.517,0.362-0.467,0.47,0.914,0.672c0.789,0.119,1.246,0.121,1.542,0.047c0.304-0.433,0.137-1.36,1.144-2.944
		c1.711-2.696,1.519-1.73,2.666-1.73c1.14,0,3.606,1.073,4.562,1.971c0.135,0.127,0.304,0.952,0.491,0.952h0.672
		c1.17,1,2.939,1.337,4.138,2.218c1.517,1.127,3.42,0.536,4.561,0.09c0.772-0.306,2.497,0.692,3.889,1.692h-0.654
		c0.786,1,1.5,1.233,1.923,1.899c0.283,0.451,0.673,1.101,1.118,1.101h0.781c1.293,1,2.884,1.209,3.78,1.664
		c0.839,0.424,1.978,1.336,2.755,3.336h-0.495c0.525,1,0.922,1.894,0.997,2.806C316.801,257.856,316.788,258,316.79,258z
		 M200.273,129h-0.818c0.161,0,0.349,0.252,0.58,0.282c0.412,0.053,0.719-0.282,0.969-0.282h-0.029c0.062,0,0.106-0.659,0.163-0.687
		c0.784-0.833,0.75-3.238,0.608-3.911c-0.189-0.9-0.189-4.7,0.573-5.377c0.617-0.55,1.379-1.611,2.772-2.247
		c0.175-0.104,0.329,0.223,0.527,0.223h2.341c1.203,0,1.891,1.665,1.75,3.153c-0.035,0.362-0.037,0.847-0.026,0.847h-0.364
		c0.005,2,0.313,3,0.756,3h0.754c0.007,0,0.013,0.006,0.02,0.006c0.009,0,0.023-0.006,0.033-0.006h0.329
		c0.939,0,1.477-2.004,0.892-3.04c-0.759-1.348-0.103-6.201-0.103-4.625c0,0.004,0,0.009,0,0.013c0-0.205,1.476,0.652,1.532,0.652
		h0.152c0.011,0,0.017-0.415,0.017-0.313c0,1.495,1.371,2.152,2.324,2.063c0.32-0.871-1.303-4.097-2.488-4.295
		c-1.333-0.227-3.991-0.18-4.56,0.046c-0.569,0.223-3.807-0.736-5.331-0.511c-1.447,0.217-3.57,1.01-4.428,3.01h0.226
		c-0.001,0-0.002-0.221-0.003-0.218c-0.488,1.151-0.351,3.218-0.24,4.218h-0.373c0.068,1,0.139,1.791,0.064,2.318
		c-0.025,0.18-0.052,0.682-0.079,0.682h0.336C199,126,198.989,128,200.273,129z M213.374,129h-0.006c0.02,0,0.037-0.659,0.055-0.671
		c0.318-0.232,0.621-1.009,0.876-1.311c0.316-0.374,0.737-0.736,1.192-1.004c0.797-0.536,1.766-0.959,2.529-1.403
		c0.266-0.185,0.5-0.392,0.654-0.618c0.755-1.121,1.328-0.894,3.228-1.796c1.904-0.9,3.424-1.113,2.666-2.24
		c-0.762-1.125-4.754,0.021-5.325-0.427c-0.047-0.038-0.127,0.271-0.218,0.309c-0.242,0.196-0.532,1.161-0.849,1.161h-0.139
		c-0.795,1-1.791,2-2.493,3h0.177c-0.413,1-0.688,0.557-0.688,0.557s-0.122-0.168-0.284-0.09c-0.042,0.057-0.072,0.045-0.072,0.045
		s-1.556,0.712-2.629,1.387c-0.335,0.236-0.58,0.487-0.626,0.652c-0.089,0.317-0.301,0.426-0.443,0.5
		c-0.034,0.045-0.071,0.514-0.11,0.54c-0.057,0.112-0.036,0.408,0.154,1.408h-0.442c0.03,0,0.058,0.168,0.105,0.282
		C211.017,130.066,212.284,130,213.374,129z M117.5,109h0.4c0.214,2,0.763,3.29,1.656,3.104c0.584-0.677,0.496-2.734-0.154-3.508
		c-0.759-0.897-3.614-3.657-4.184-3.657c-0.569,0-1.713-1.378-2.284-1.606c-0.084-0.033-0.119,0.221-0.184,0.21
		c0.009,0.468,0.574,2.457,1.168,2.457h-0.522c0.371,1,0.768,0.988,1.059,1.194C115.405,107.869,117.299,108,117.5,109z
		 M204.978,108.471c-1.333-0.223-3.421-1.796-4.562-3.144c-1.139-1.348-3.805,1.797-6.278,2.921
		c-1.188,0.541-1.973,0.719-2.476,0.957c-0.278,0.246-0.399,0.6-0.399,1.285c0,1.208,1.899,1.347,3.04,0.673
		c1.145-0.673,2.857-1.121,3.616-1.347c0.76-0.228,0.381,1.12,2.092,1.12c1.655,0,3.657,0.623,4.304,0.465
		C205.007,110.707,206.131,108.668,204.978,108.471z M264.466,323.438c-0.042-0.276-0.085-0.368-0.154-0.164
		c-0.014,0.044-0.038,0.112-0.056,0.164H264.466z M141.083,33.352c1.01,0,3.551-1.051,4.307-0.302
		c0.763,0.747,2.666,0.468,2.535-0.283c-0.036-0.214,0.012,0.233,0.062-0.767h0.333c0.124-1,0.361-3.247-0.795-3.359
		c-1.526-0.151-3.678,1.49-5.961,2.391c-0.203,0.08-0.355,0.109-0.488,0.225C139.78,31.884,140.103,33.352,141.083,33.352z
		 M160.858,31.104c1.525,0,4.818-0.901,5.069-0.155c0.254,0.756-0.124,1.352,1.647,1.648c1.781,0.304,2.537,0.921,3.552,0.921
		c0.674,0,0.724-0.519,0.428-1.519h0.424c-0.139,0-0.404-1.487-0.75-2.011c-0.886-1.348-0.632-1.351-2.913-2.106
		c-2.284-0.747-4.568-0.826-6.086-0.68c-1.065,0.108-2.181-0.101-2.891,0.492c-0.487,0.22-0.861,0.621-1.016,1.481
		C158.128,30.244,159.337,31.104,160.858,31.104z M182.667,46.231c1.646-0.3,4.053-0.601,5.194-0.746
		c0.217-0.028,0.391-0.149,0.54-0.3c0.974-0.362,1.138-1.715-0.054-1.853c-0.801-0.093-1.5-0.332-2.191-0.332h-1.434
		c-0.693,0-1.982,0.297-3.008,0.976c-1.106,0.683-2.033,1.135-1.838,1.672C180.022,46.058,181.019,46.527,182.667,46.231z
		 M176.835,32.752c1.396,0.746,3.675,2.092,5.324,2.847c1.647,0.747,4.814,0.894,5.831,2.395c1.015,1.493,4.438,2.695,4.438,2.695
		l4.059,0.453c0,0,2.79-0.755,5.702-0.453c2.919,0.3,7.227,0.75,9.636,0.601c2.412-0.147,2.789-0.438,3.044-1.039
		c0.099-0.234-0.562-0.25-1.464-0.25h0.967c-1.351-1-3.917-1.737-4.725-1.627c-1.145,0.146-7.611-0.158-9.511-0.305
		c-1.903-0.154-4.309-0.307-5.835-0.152c-1.517,0.146-2.659-0.94-3.802-1.691c-0.463-0.305-1.162-0.225-1.925-1.225h-0.654
		c-1.034,0-2.15-1.905-2.973-2.069c-1.521-0.296-1.267-0.147-4.438-1.048c-0.036-0.01-0.078,0.118-0.115,0.118h1.165
		c-0.221,0-0.429-0.44-0.693-0.515c-1.608-0.458-4.31-1.201-4.31-1.654c0-0.16-0.09-0.007-0.147,0.377
		c-0.122-0.077-0.208-0.193-0.208-0.265C176.2,29.497,175.439,32.003,176.835,32.752z M358.197,67.881
		c0.076-0.005,0.127-0.007,0.127-0.007s2.789-2.041,1.771-3.087c-0.098-0.102-0.219,0.214-0.34,0.214h-0.68
		c-1.172-1-2.958-1.812-3.903-1.938c-1.14-0.148-2.28,1.305-4.815,1.305c-1.1,0-2.024,0.633-2.812,0.633h-1.874
		c-0.185,0-0.359-0.704-0.515-0.886c-1.01-1.2-5.2-2.049-5.578-1.305c-0.508,1.004-1.519,0.925-0.508,3.024
		c1.017,2.093,1.779,3.227,2.665,3.082c0.886-0.151,3.929-0.333,4.314,0.868c0.377,1.199,1.392,2.234,3.543,1.478
		c2.157-0.747,3.929-1.201,4.438-2.103c0.508-0.899,3.936-1.05,3.936-1.05S358.066,68.009,358.197,67.881z M225.77,184.826
		c0.254-0.095,0.443,0.479,0.484,0.286c0.088-0.411-0.357-1.112-0.982-1.112h-0.578c-0.704-1-1.574-1.224-2.221-1.113
		c-0.971,0.166-2.752-0.887-4.234-1.887h0.676c-0.668-1-1.299-1.688-1.787-2.192c-1.526-1.573-4.376-1.917-5.517-1.917
		c-1.141,0-5.708,1.402-5.708,1.402c-0.003,0.042,0.003-0.016,0.001,0.024c-0.207,0.069-0.357,0.078-0.357,0.078
		c-0.189,2.244,1.714,1.549,3.998,1.549c2.281,0,6.275-0.456,7.034,0.663c0.762,1.128,4.184,2.916,5.135,3.817
		C222.587,185.244,225.194,185.484,225.77,184.826z M246.886,191.96c0.579-0.322,0.839,0.04,0.843-0.96h-0.385
		c-0.103-1-0.875-2.519-1.86-2.307c-1.738,0.369-1.326,4.385,0.763,3.647C246.508,192.25,246.72,192.119,246.886,191.96z
		 M577.153,218.772c-0.122-0.178-0.235-0.772-0.345-0.772h0.438c-0.612-2-1.086-5.415-2.598-4.62
		c-0.069,0.034-0.135-0.219-0.201-0.128c-0.056,0.019-0.1-0.164-0.154-0.133c-1.231,0.644-2.498,11.821-0.213,12.721
		c0.717,0.282,1.359,0.16,1.881-0.84h0.21c0.709-1,1.221-3,1.428-4h-0.33C577.392,220,577.37,219.093,577.153,218.772z
		 M415.049,133.952c0.419-0.202,0.819,0.046,1.188-0.568c0.384-0.633,0.325-1.384,0.068-1.384h-0.461
		c-0.412-1-1.152-2.209-1.674-2.209c-1.795,0-2.665,3.052-1.527,4.17C413.47,134.771,414.295,134.546,415.049,133.952z
		 M401.44,133.202c0.234-0.087,0.435-0.239,0.529-0.467c0.311-0.727-0.258-1.998-1.182-1.182c-0.308,0.106-0.668,0.434-1.071,1.185
		C399.307,133.5,400.843,133.794,401.44,133.202z M426.914,141.051c0.447,0.135,1.478,0.098,2.103-0.405
		c0.647-0.3,1.114-0.473,0.727-1.63c-0.06-0.174-0.133-0.016-0.202-0.016h-0.458c-0.843-1-2.235-1.998-2.741-1.998
		c-0.568,0-3.041-0.895-3.996-0.222c-0.694,0.487,1.141,1.911,2.097,2.357C425.394,139.587,426.149,140.828,426.914,141.051z
		 M371.762,99.032c-1.139,0.673,0.186,3.371,1.709,3.595c1.519,0.228,3.237-0.661,4.562-1.335c1.023-0.517,2.375-1.292,2.951-2.292
		h0.243c0.241,0,0.397-0.739,0.397-1.302c0-1.077-0.115-2.698-0.329-2.698h-0.431c-0.185-1-0.419-1.876-0.738-2.25
		c-0.761-0.9-2.094-0.783-3.234-0.56c-1.709,0.337-1.901,2.81-3.017,2.81h-0.93c-0.172,0-0.324-0.512-0.456-0.397
		c-0.578,0.285-0.956,0.475-0.729,1.402C372.14,97.58,372.902,98.359,371.762,99.032z M382.788,92.966
		c1.902,0.901,5.898,1.797,4.381,2.698c-1.523,0.901-5.926,5.325-6.304,6.671c-0.386,1.348,4.971,0.743,4.971,0.743
		s-1.146,1.576-0.191,2.021c0.33,0.156,0.615,0.006,0.91-0.247c0.407-0.184,0.8-0.698,1.309-1.094
		c0.244-0.132,0.509-0.23,0.822-0.23c1.521,0,4.562,1.125,6.088,1.125c0.472,0,1.034,0.221,1.582-0.155
		c1.101-0.625,2.227-1.499,2.514-2.499h-0.325c0.022,0,0.05-0.321,0.034-0.46c-0.089-0.731-0.555-1.54-1.191-2.54h0.519
		c-0.75-1-1.79-1.908-2.775-2.428c-0.588-0.309-1.198-1.572-1.792-1.572h-0.533c-0.738-1-1.438-3-2.039-3h0.53
		c-0.34-1-0.653-1.146-0.92-1.357c-0.73-0.577,1.202-1.643,2.339-3.643h-0.17c0.524,0,0.798-1.356,0.367-1.863
		C392.07,84.142,390.153,84,388.47,84h2.757c-1.705,0-3.831-0.475-4.849-1.229c-0.873-0.646-1.682-0.648-2.395-0.127
		c-0.672,0.355-1.271,0.955-1.767,1.655c-0.948,1.346-2.09-0.274-3.229,0.179c-1.539,0.605-0.955,2.892-0.192,4.02
		C379.558,89.616,380.89,92.069,382.788,92.966z M623.846,31.368h0.303c0.196-0.781-0.376-0.968-0.386-0.407
		c-0.221-0.342-0.725-0.068-0.135,1.063C623.768,31.768,623.835,31.547,623.846,31.368z M762.355,79.064
		c-1.176,0.739-1.435,2.181-2.097,3.484C760.02,83.017,759.927,84,759.89,84h-0.314c-0.321,2,0.812,1.241,0.328,2.756
		C759.88,86.83,759.85,87,759.825,87h0.275c-0.509,2-1.152,3-1.295,5h-0.327c-0.037,0-0.092-0.115-0.092,0.113
		c0,1.306-2.358,1.202-3.812,2.068c-0.151,0.109-0.288,0.52-0.399,0.65c-0.654,0.775-1.574,3.169-2.841,4.169h-0.169
		c-0.786,1-1.716,2-2.815,3h0.078c-0.178,0-0.348,0.08-0.534,0.223c-1.58,1.214-2.932,2.777-3.899,3.777h-0.172
		c-1.114,2-1.79,2.292-1.79,2.292s0.568-3.935,2.088-6.628c1.518-2.695-1.712-6.55-1.903-9.472
		c-0.185-2.921,0.956-3.543,2.851-6.238c0.678-0.961,1.7-0.954,2.814-1.954h-0.033c2.015-1,4.426-2.272,5.771-3.147
		c1.977-1.438,8.372-6.825,9.376-7.634c-0.152,0.101-0.326,0.159-0.534,0.291c-0.621,0.409-1.611,0.999-2.741,1.535
		c-1.909,0.893-4.188,2.699-5.71,2.699c-1.521,0-0.944-1.769-1.141-3.562c-0.138-1.286-2.024-0.868-3.577,0.08
		c-0.471,0.331-0.901,1.12-1.203,1.527c-0.169,0.228-0.406,1.21-0.61,1.21h-0.135c-0.921,1-2.213,2-3.709,3h0.027
		c-0.655,0-1.335,0.385-2.035,0.976c-1.654,1.395-1.987,1.367-2.41,1.556c-0.422,0.329-0.626,0.271-1.56,0.396
		c-1.722,0.224-4.567-1.149-5.896-2.271c-1.334-1.124-2.663,0.896-6.847,1.122c-4.183,0.223-8.943-0.427-10.842-0.204
		c-0.188,0.022-0.408,0.427-0.647,0.561C712.904,82.493,712.312,84,711.66,84h-0.115c-0.926,1-1.959,2-2.993,3h0.124
		c-1.043,1-2.069,1.767-2.978,2.333c-0.402,0.28-0.782,0.706-1.134,0.844c-2.588,1.019-5.762,2.823-5.629,4.823h0.415
		c0.026,0,0.014-0.421,0.058-0.348c0.35,0.578,0.804,0.077,1.271-0.194c0.695-0.537,1.384-0.973,1.794-0.973
		c0.268,0,0.273,0.515,0.247,1.515h0.349c-0.055,1-0.119,1.349,0.9,1.349c1.712,0,2.659-1.678,4.375-1.9
		c1.322-0.172,2.406,0.819,3.011,2.437c0.122-0.207,0.305-0.357,0.524-0.462c0.72-0.703,2.395-0.398,3.124-0.643
		c1.324-0.452,0.946,1.466,1.519,1.913c0.201,0.161,0.207,1.307,0.103,1.307h-0.307c-0.103,1-0.742,1.702-1.292,1.867
		c-0.454,0.135-0.163,0.133,0.343,1.133h0.543c0.313,0,0.669,0.595,0.986,1.123c0.448,0.741,0.85,1.877,1.075,2.877h-0.406
		c0.296,2,0.357,2.643-0.069,2.768c-0.117,0.034-0.261,0.232-0.396,0.232h0.002c-0.666,1-1.344,1.66-1.344,2.303
		c0,0.373,0.224,1.697,0.426,2.697h-0.4c0.209,1,0.389,2,0.302,3h0.324c-0.053,0-0.131-0.169-0.27-0.103
		c-0.069,0.033-0.146-0.396-0.221-0.383c-0.043,0.064-0.07,0.104-0.137,0.135c-0.953,0.45-2.472-1.128-2.85-1.803
		c-0.388-0.672-0.568-5.794-0.388-8.268c0.196-2.472,0-4.37-1.138-7.51c0.13,0.853,0.074,1.931-0.078,2.931h0.317
		c-0.28,1-0.817,3-1.27,4h-0.296c-0.063,1-0.132,0.493-0.194,0.747c-0.181,0.748-0.388,2.253-0.631,2.253h0.278
		c-0.522,2-1.232,3-2.312,5h-0.195c-0.577,1-1.255,1.582-2.085,2.318c-0.229,0.203-0.486,0.682-0.734,0.682h0.104
		c-1.457,1-3.137,3-4.604,4h-0.13c-1.139,1-2.138,3-2.821,3h0.149c-0.239,1-0.428,0.159-0.55,0.33
		c-0.146,0.206-0.358,0.112-0.597,0.211c-1.172,0.969-4.166-0.088-4.7-0.93c-0.113-0.18-0.282-0.186-0.477-0.107
		c-0.735,0.578-1.734,1.935-2.62,2.479c-0.002,0.002-0.006,0.091-0.006,0.093c-0.053,0.031-0.104,0.524-0.153,0.549
		c-0.747,0.377-1.467,1.375-1.979,2.375H685.6c-0.488,0-0.816,1.435-0.816,2.324c0,0.255-0.091,0.676-0.222,0.676h0.14
		c-0.129,0-0.282-0.372-0.452-0.27c-0.689,0.566-1.885,0.374-2.624,0.749c-0.165,0.137-0.281,0.561-0.281,0.743
		c0,0.503,0.467,1.777,1.061,2.777h-0.493c0.577,1,1.311,2,1.87,3h0.501c0.103,0,0.205,0.598,0.287,0.735
		c0.474,0.787,0.426,2.265,0.046,4.265h-0.312c-0.243,1-0.655,2-1.174,3h0.213c-0.213,0-0.437-0.194-0.675-0.038
		c-0.688,0.451-1.223,0.329-1.764,0.648c-0.928,0.653-1.779,0.918-3.345-0.154c-2.283-1.575-0.381-2.459,0.57-4.929
		c0.955-2.473-0.951-3.489-1.334-4.162c-0.151-0.272-0.49,0.634-0.891,0.634h0.072c-0.459,1-0.949,0.418-1.321,0.609
		c-0.189,0.146-0.371-0.048-0.519-0.005c-0.762,0.227-0.762-2.083-0.195-3.431c0.573-1.347-0.374-4.29-0.943-4.514
		c-0.114-0.045-0.373,0.086-0.689,0.285c-0.704,0.49-1.633,1.23-2.532,1.805c-0.945,0.637-1.881,1.202-2.487,1.112
		c-1.525-0.22-0.192-4.166,0.376-5.292c0.578-1.124-1.141,0.222-2.277,1.345c-0.131,0.128-0.282,1.085-0.443,1.085h0.12
		c-0.856,1-1.973,1.252-2.85,1.772c-0.562,0.388-1.064,0.156-1.387,0.077c-0.188-0.043-0.405,0.292-0.63,0.394
		c-0.424,0.328-0.798,1.756-0.88,1.756h-0.328c-0.156,1-0.064,1.146,0.504,1.647c0.555,0.494,0.962,1.353,1.329,1.353h0.569
		c0.534,1,0.964,0.68,1.498,0.806c0.949,0.227,3.424-0.65,4.377-0.874c0.943-0.223,2.85,1.997,0.943,4.019
		c-0.137,0.146-0.304,0.049-0.46,1.049h-0.087c-1.695,1-4.711,2-5.004,3h0.384c0.012,0-0.011-0.072,0.042,0.016
		c0.55,0.982,1.711,1.984,2.89,3.984h-0.512c0.491,1,0.984,1.599,1.446,2.553c0.067,0.143,0.111,0.447,0.172,0.447h0.449
		c0.585,1,0.771,3,0.841,4h-0.365c0.058,1,0.062,2,0.12,3h0.371c0.023,1,0.055,0.9,0.101,1.193c0.14,0.914-0.582,1.807-1.63,3.807
		h-0.183c-0.756,1-1.707,2-2.645,3h0.12c-1.177,1-2.294,1.938-2.896,2.491c-0.471,0.435-0.947,1.509-1.442,1.509h-0.188
		c-0.66,1-1.362,2-2.157,3h0.168c-0.775,1-1.641,1.499-2.652,2.136c-0.057,0.036-0.13-0.158-0.19-0.123
		c-0.057,0.038-0.106,0.138-0.165,0.175c-2.854,1.804-8.944,3.815-9.889,3.141c-0.732-0.516-2.452,0.67-3.135,2.67h0.277
		c-0.15,0-0.247,0.289-0.208,0.779c0.186,2.474,1.519,2.035,1.519,2.708c0,0.039-0.025,0.513-0.036,0.513h-0.339
		c0.004,0,0.02,0.062,0.02,0.09c0,0.439-0.806,1.91-1.575,2.91h0.2c-0.355,1-0.697,0.562-0.93,0.905
		c-0.085,0.125-0.23-0.183-0.356-0.113c-0.762,1.116-3.425-0.008-3.041-3.377c0.378-3.376,2.281-4.64,2.086-6.214
		c-0.183-1.566-1.899-2.004-3.041-0.657c-0.352,0.415-0.941,1.458-1.586,2.458h0.145c-1.396,1-2.954,2.942-2.954,2.942
		s0.179,0.058,0.479,1.058h-0.444c0.318,1,0.81,2,1.422,3h0.504c0.335,1,0.697,0.797,1.082,1.151
		c0.891,0.818,1.631,1.849,2.454,2.849h-0.514c0.569,1,1.215,2,1.938,3h0.509c0.249,1,0.469,1.006,0.751,1.423
		c0.782,1.155,1.073,2.577,1.125,3.577h-0.378c0.087,1-0.067,2-0.319,3h0.294c-0.248,1-0.539,1.49-0.722,2.279
		c-0.226,0.979-0.664,1.721-1.203,1.721h-0.089c-0.847,1-2.035,0.918-3.061,1.22c-1.224,0.356-1.707,0.78-2.146,1.78h0.25
		c-0.074,0-0.146,0.576-0.225,0.758c-0.266,0.635-1.017,2.242-1.776,4.242h-0.243c-0.891,2-1.823,2.945-2.037,2.324
		c-0.378-1.125-2.761-9.188-2.761-9.188s-1.718-4.024-4.181-6.042c-2.478-2.021-3.423-2.533-3.423-0.51
		c0,0.261-0.026,1.416-0.07,1.416h0.315c-0.229,1-0.768,3-1.112,4h-0.295c-0.207,1-0.363,1.097-0.363,1.521
		c0,1.349-3.427-4.281-3.427-6.526c0-2.246-0.569-6.124-0.378-9.714c0.132-2.448-1.765-1.44-2.989-0.692
		c-0.087,0.057-0.183,0.412-0.254,0.412h-0.015c-0.436,1-0.734,0.539-0.734,0.539S609.424,197,608.831,198h0.256
		c-0.675,2-1.524,4-2.195,5h-0.218c-0.41,1-0.769,0.615-0.994,0.615c-0.958,0,0-7.813,0.183-10.509
		c0.19-2.694-0.946-5.203-1.517-6.1c-0.572-0.901-3.81-4.468-4.379-6.944c-0.339-1.477-0.886-1.642-1.512-1.334
		c-0.316,0.244-0.646,1.046-0.981,1.44c-0.048,0.058-0.082,0.833-0.126,0.833h-0.161c-0.021,0-0.045-0.41-0.068-0.383
		c-1.141,1.344-0.761,1.259-5.323,1.259c-1.991,0-3.058,1.124-3.84,2.124h0.154c-0.888,1-1.416,2.328-2.622,3.394
		c-0.284,0.251-0.561,0.606-0.834,0.606h-0.123c-0.837,1-1.639,2-2.455,3h0.179c-0.928,1-1.895,1.769-2.976,2.5
		c-0.317,0.243-0.647,0.094-0.988,0.265c-0.328,0.166-0.632,0.532-0.915,0.698c-0.169,0.107-0.347,0.537-0.499,0.537h-0.009
		c-1.43,1-2.172,2-2.337,3h0.334c-0.006,1-0.021,0.441-0.021,0.525c0,0.779,0.261,2.475,0.458,4.475h-0.384c0.117,1,0.213,2,0.234,3
		h0.352c0.005,1-0.032,1.123-0.156,1.615c-0.228,0.898-0.621,1.385-1.063,2.385h-0.241c-0.497,1-1.079,2-1.7,3h0.217
		c-0.189,1-0.382,0.889-0.567,1.205c-0.621,1.051-1.199,2.795-1.761,3.795h-0.242c-0.679,1-1.32,1.91-1.963,1.91
		c-1.144,0-1.527-3.656-1.527-5.682c0-2.021-3.229-6.772-3.99-8.349c-0.76-1.571-3.611-8.51-3.611-8.51s-2.277-7.316-2.09-9.342
		c0.188-2.022,0.188-7.168,0.188-7.168s-1.224,2.14-2.46,3.14h0.045c-0.169,0-0.337-0.467-0.497-0.369
		c-0.552,0.389-1.079,0.075-1.462,0.01c-1.336-0.225-2.66-2.756-2.477-5.679c0.19-2.921-2.277-2.729-3.611-3.18
		c-1.331-0.447-3.041-4.503-3.992-4.503c-0.465,0-0.838-0.005-1.187,0.151c-0.238,0.2-0.479,0.491-0.735,0.955
		c-0.131,0.23-0.374,0.4-0.665,0.544c-1.18,0.978-4.532,0.804-5.401,0.804c-0.956,0-6.655-0.224-8.366-0.9
		c-1.71-0.672-3.611-4.711-4.564-5.157c-0.949-0.45-3.801,2.476-4.939,2.031c-1.143-0.446-3.427-2.68-5.902-4.028
		c-2.466-1.348-3.229-4.207-4.18-6.228c-0.795-1.689-3.162,0.548-3.705,2.548h0.282c-0.061,1-0.078,0.897-0.03,1.193
		c0.188,1.094,1.281,2.807,2.351,3.807h-0.562c0.991,1,1.978,2,2.294,3h0.419c0.019,0,0.067-0.373,0.067-0.298
		c0,1.563,0.761,1.85,2.85,3.87c0.06,0.057,0.087,0.428,0.14,0.428h-0.568c0.025,0,0.048,0.062,0.073,0.088
		c1.391,1.34,1.112,2.912,1.151,2.912h0.383c0.061,0,0.201-0.046,0.534,0.065c0.483,0.164,1.047-0.315,1.654-0.682
		c0.974-0.664,2.046-1.693,3.125-2.327c1.763-1.044,1.739-2.44,2.479-2.648c0.146-0.16,0.308,0.035,0.543,0.035
		c0.623,0,0.762,1.557,1.212,2.557h-0.465c0.243,1,0.573,1.12,1.179,1.208c0.759,0.114,2.14,0.792,3.449,1.792h0.658
		c1.189,1,2.275,2.167,2.711,2.996c0.345,0.645,0.311,1.004,0.1,2.004h-0.286c-0.296,1-1.334,2-1.866,3h0.241
		c-0.478,1-1.39,2-2.433,4h-0.215c-0.679,1-1.405,2-2.111,3h0.146c-0.077,0-0.155-0.319-0.229-0.248
		c-1.203,1.136-2.495,2.14-3.994,3.187c-0.967,0.728-2.018,1.265-3.21,1.544c-2.852,0.676-3.229,2.445-5.511,2.668
		c-2.28,0.224-8.558,3.809-9.512,4.482c-0.95,0.678-6.088,2.463-7.604,1.793c-1.525-0.676-2.094-5.171-2.668-8.541
		c-0.568-3.368-1.324-5.167-1.895-6.511c-0.57-1.349-3.997-4.934-4.761-5.607c-0.765-0.675-2.658-6.046-2.85-8.293
		c-0.193-2.249-2.28-1.31-2.658-3.775c-0.387-2.477-2.481-5.758-2.858-7.333c-0.281-1.182-2.497-0.036-4.227,0.493
		c0.089,0.177,0.178,1.141,0.27,1.141h-0.472c0.275,0,0.554,1.086,0.814,1.658c0.187,0.409,0.373,0.342,0.561,1.342h0.453
		c0.58,1,1.167,3,1.772,4h-0.447c0.398,1,0.811,2,1.232,3h0.459c0.17,1,0.335,1.06,0.509,1.42c0.435,0.899,0.596,1.58,0.655,3.58
		h-0.364c0.057,1,0.048,2,0.027,3h0.354c-0.035,1-0.044,3,0.323,4h-0.445c0.103,0,0.243,0.748,0.438,1.011
		c0.505,0.67,1.284,0.989,2.128,1.989h0.648c1.629,1,3.432,2.372,4.031,4.071c0.017,0.052,0.043-0.071,0.062-0.071h-0.458
		c0.012,0,0.03,0.068,0.039,0.094c0.356,1.006,0.896,2.906,1.474,2.906h0.519c0.926,2,1.909,2.639,2.361,2.773
		c0.293,0.087,0.951,1.227,1.659,2.227h-0.518c0.621,1,1.286,2,1.812,3h0.478c0.404,1,0.699,1.225,0.752,1.598
		c0.091,0.662-0.179,1.402-0.122,2.402h-0.354c0.011,1,0.352,1.676,2.015,1.797c3.052,0.227,5.711-1.506,6.664-1.953
		c0.041-0.02,0.106,0.156,0.172,0.156h-0.108c0.104,0,0.213-0.419,0.294-0.455c0.948-0.445,8.363-3.756,9.314-2.408
		c0.325,0.461,0.258,1.863,0.041,2.863h-0.318c-0.156,1-0.418,2-0.699,3h0.291c-0.383,2-0.761,2.854-0.834,3.453
		c-0.03,0.266-0.227,0.547-0.51,1.547h-0.242c-0.379,0-0.992,2-1.682,3h0.217c-0.897,1-1.89,3-2.618,4h-0.23
		c-0.655,1-1.138,2.229-1.188,2.796c-0.008,0.058-0.037,0.204-0.049,0.204h0.3c-0.348,1-1.755,3-3.256,5h-0.073
		c-0.832,0-1.7,0.795-2.432,0.951c-0.586,0.127-1.351,1.049-2.178,1.049h0.123c-1.229,2-2.571,3-3.688,5h-0.183
		c-0.86,1-1.599,2.186-2.064,2.807c-0.039,0.051-0.086,0.193-0.127,0.193h0.193c-0.876,1-1.973,3-2.963,4h-0.197
		c-0.806,2-1.553,2.155-2.044,2.352c-0.187,0.072-0.365,0.648-0.534,0.648h0.245c-0.479,1-0.841,3-0.949,5h-0.334
		c-0.092,1-0.069,1.958,0.126,2.262c0.096,0.15,0.177-0.262,0.257,0.738h0.413c0.271,1,0.545,3,1.193,4h-0.467
		c0.258,1,0.582,1.241,1.003,1.686c0.438,0.457,0.793,1.314,1.08,1.314h0.478c0.695,1,0.848,2.372,0.317,3.467
		c-0.161,0.334-0.227,0.533-0.248,1.533h-0.339c-0.071,0,0.021,1,0.135,3h0.378c0.126,1,0.236,2.404,0.074,3.643
		c-0.026,0.195-0.092,0.357-0.142,0.357h-0.303c-0.211,1-0.729,2-1.367,3h0.188c-1.062,1-2.312,2.441-2.752,2.953
		c-0.234,0.283-0.77,1.047-1.416,1.047h-0.078c-0.951,1-2.263,2-3.366,3h0.14c-0.445,1-0.86,1.215-1.173,1.674
		c-0.745,1.096-1.438,2.326-1.911,3.326h-0.23c-0.575,1-0.895,1.969-0.687,2.586c0.03,0.092,0.077,0.414,0.122,0.414h0.426
		c0.3,1,0.782,3,1.125,4h-0.408c0.267,1,0.451,3,0.443,3h0.354c0,0,0.005-0.255,0-0.246c-0.045,0.346-0.412,0.477-0.951,0.752
		c-1.329,0.883-4.596,1.873-5.962,2.563c-0.341,0.309-0.4,0.931-0.307,1.931H467.2c0.082,1,0.614,2,1.056,3h0.447
		c0.176,0,0.33,0.599,0.403,0.955c0.19,0.908-0.495,2.045-1.391,3.045h-0.188c-0.807,1-1.81,2-2.518,3h0.151
		c-0.015,0-0.034-0.186-0.052-0.168c-0.677,0.801-1.937,3.168-3.332,4.168h-0.184c-0.778,1-1.603,3-2.406,3h0.147
		c-0.573,1-1.134,0.932-1.638,1.348c-0.318,0.263-0.655,0.323-1.008,0.511c-2.42,1.503-5.596,1.102-7.862,0.896
		c-2.467-0.226-6.517,1.947-7.467,3.068c-0.954,1.127-2.276,0.883-4.18-0.235c-1.906-1.129-2.099-2.705-2.282-5.184
		c-0.193-2.472-0.763-4.046-0.763-4.046s-0.568-3.818-2.285-5.614c-1.712-1.803-2.284-3.823-3.229-5.179
		c-0.949-1.344,1.761-5.179,1.567-7.649c-0.193-2.472-3.474-5.375-4.421-6.951c-0.954-1.574-2.856-5.843-3.617-7.418
		c-0.757-1.574-1.712-4.715-1.521-9.207c0.195-4.494,2.122-7.123,3.649-8.475c1.523-1.348,0.921-2.984-0.413-5.678
		c-1.333-2.701,0.192-7.2-0.955-8.767c-1.14-1.575-2.902-10.352-4.998-11.698c-2.096-1.349-4.315-1.338-3.176-4.479
		c1.141-3.147,0-6.292,1.902-8.313s0.948-3.369-1.141-4.72c-2.094-1.349-1.331-2.019-3.041-0.446
		c-1.72,1.572-3.998,2.474-5.325,0.896c-1.334-1.57-0.956-4.038-3.428-5.839c-2.417-1.75-6.241-1.196-7.302-0.753
		c-0.775,0.682-2.021,2.701-3.637,3.826c-0.609,0.49-1.273,0.897-1.995,1.021c-2.659,0.454-4.562-0.17-7.227-0.17
		c-2.659,0-4.944,0.582-5.323,2.158c-0.055,0.229-0.116,1.098-0.183,1.098h0.268c-0.171,0-0.392,0.238-0.693,0.339
		c-0.41,0.448-1.022,0.067-2.05-0.88c-1.718-1.571-5.138-5.231-5.138-5.231s-3.159-6.229-4.114-8.933
		c-0.948-2.692-4.252-2.8-7.864-4.823c-3.614-2.021-1.526-4.273-1.904-6.521c-0.379-2.25-2.281-3.151-1.333-3.379
		c0.047-0.009,0.08-0.041,0.122-0.06c0.023-0.072,0.082-0.138,0.235-0.174c0.025-0.005,0.038-0.031,0.062-0.041
		c0.534-0.588,0.721-2.091,2.433-4.672c2.095-3.143,0.761-6.516,0.386-8.315c-0.386-1.796-2.283-4.489-0.386-7.413
		c1.903-2.921,3.094-9.889,4.613-11.688c0.464-0.546,1.22-1.089,2.084-1.616c1.933-1.248,4.636-2.402,6.215-3.226
		c1.811-1.206,0.631-4.018,1.732-7.277c1.007-2.977,2.461-4.541,3.181-4.869c0.253-0.196,0.465-0.285,0.604-0.285
		c0.055,0,0.132-0.002,0.216-0.045c0.915-0.667,2.587-2.287,4.365-3.452c1.711-1.129,5.708,0.336,6.47-0.109
		c0.763-0.446,3.799-1.091,5.516-1.987c0.035-0.019,0.092,0.655,0.13,0.655h-0.11c0.113,0,0.233-0.772,0.336-0.827
		c1.711-0.901,7.226-3.685,7.982-3.685c0.763,0,10.269,0.282,11.601-0.395c1.333-0.674,6.481-1.174,7.999,3.769
		c0.05,0.164,0.083,0.138,0.122,1.138h-0.42c1.286,4-1.528,2.35-3.084,2.973c-1.164,0.949,0.747,2.574,1.469,2.574
		c0.312,0,0.942,0.453,1.668,1.453H420.1c1.102,1,2.518,2.104,3.382,2.104c0.72,0,1.984,0.896,3.004,0.896h0.903
		c0.594,0,1.017-0.038,1.017-0.038s3.228,2.796,4.945,2.796c0.676,0,1.535,1.242,2.443,1.242h-0.758c1.503,1,3.205,1.737,4.47,0.246
		c1.896-2.249,2.804-6.655,4.709-6.205c1.12,0.268,2.312,0.959,3.604,1.959h0.942c0.724,0,1.478-0.038,2.271-0.038
		c2.472,0,7.041-0.575,7.802,0.548c0.412,0.609-1.132,2.49-2.571,3.49h-0.103c-1.306,2-2.626,2.34-2.441,2.78
		c0.035,0.082,0.076,0.22,0.119,0.22h0.598c0.101,0,0.221,0,0.351,0h0.064c0.46,0,1.073-1.35,1.916-2.548
		c0.635-0.898,1.377-1.679,2.165-2.104c1.661-1.047,3.588-1.273,5.227-1.757c1.145-0.339,2.005,0.538,2.624,1.694
		c0.643-0.359,1.438-0.39,2.321-0.39c0.362,0,0.614-0.06,0.82-0.142c0.5-0.493,0.578-1.491,1.865-3.014
		c1.895-2.247,2.475-6.734,2.657-9.655c0.194-2.927-1.332-1.569-2.847-1.119c-1.521,0.448-3.806,1.136-4.562,0.909
		c-0.762-0.224-3.805-1.323-4.376-0.649c-0.578,0.674-3.804,0.274-4.562-0.847c-0.76-1.129-4.568-2.376-4.951-3.271
		c-0.378-0.9,0-5.842-0.763-7.193c-0.58-1.034-1.723,0.086-2.651,1.086h0.091c-0.18,0-0.353-0.31-0.504-0.169
		c-0.171,0.164-0.408-0.184-0.664-0.034c-0.571,0.403-1.389,0.744-1.978,1.081c-0.316,0.232-0.461,0.763-0.209,0.986
		c0.432,0.379,1.392,1.136,2.12,2.136h-0.573c0.679,1,1.233,1.435,1.139,2.321c-0.025,0.245-0.082,0.679-0.16,0.679h0.241
		c-0.56,1-1.811,1.808-2.574,2.532c-0.436,0.412-1.394,1.468-2.358,2.468h-0.089c-1.231,1-2.557,1.312-2.889,0.655
		c-0.571-1.124-0.922-8.868-1.49-9.769c-0.569-0.892-2.278-3.202-2.852-5.226c-0.569-2.02-2.656-2.724-3.99-4.299
		c-1.331-1.566-5.137-4.046-6.657-5.84c-1.079-1.273-2.719-2.281-3.657-1.985c-0.183,0.189-0.325,0.739-0.359,1.158
		c-0.072,0.85,0.291,2.306,0.831,2.306h-0.555c0.821,1,2.214,2,3.018,3h0.507c0,0,0.004-0.16,0.004-0.158
		c1.143,2.25,3.614,3.806,4.939,4.479c0.082,0.041,0.194,0.679,0.295,0.679h-0.761c0.034,0,0.078,0.061,0.108,0.076
		c0.925,0.467,2.93,1.924,4.083,2.924h0.649c0.353,0,0.575-0.18,0.575-0.18s-0.174-0.439-0.438-0.35
		c0.028,0.024,0.083,0.027,0.083,0.027s-1.524,0.686-2.858,0.462c-0.018-0.003-0.02,0.338-0.035,0.337
		c-0.188,0.554,0.157,2.704,0.487,3.704h-0.411c0.28,1,0.555,2,0.523,3h0.326c-0.065,0-0.227-0.028-0.431-0.019
		c-0.472,0.899-2.394-1.32-2.738-2.963c-0.386-1.802-1.527-3.878-2.283-4.552c-0.761-0.673-5.707-2.49-6.468-2.94
		c-0.764-0.45-3.992-2.911-4.37-4.932c-0.385-2.021-3.233-1.953-3.996-1.499c-0.369,0.216-1.229,1.905-2.165,1.905h0.015
		c-0.073,0-0.146-0.216-0.222-0.167c-0.942,0.642-1.934,1.033-2.573,1.033c-1.327,0-3.421-1.087-4.946-1.314
		c-0.15-0.021-0.276,0.423-0.402,0.462c-0.828,0.748-1.062,2.986-1.507,4.986h-0.294c-0.025,0-0.049-0.237-0.076-0.15
		c-0.572,1.801-3.043,0.393-4.37,1.967c-0.188,0.221-0.394,0.184-0.606,1.184h0.128c-1.263,1-2.678,2.289-2.214,3.383
		c0.155,0.364,0.334,0.617,0.484,0.617h-0.507c0.499,1,0.876,0.96-0.519,1.875c-0.469,0.306-0.878,1.125-1.264,1.125h0.146
		c-0.696,1-1.325,1.174-2.078,1.591c-0.361,0.266-0.745,0.195-1.18,0.251c-1.71,0.228-3.99,1.179-4.945,0.505
		c-0.138-0.097-0.27,0.35-0.4,0.385c-0.33,0.345-0.631,1.267-0.903,2.267h-0.25c-0.269,0-0.512,0.438-0.728,0.692
		c-0.571,0.678-1.524-2.615-2.473-3.739c-0.954-1.125-3.42-0.29-4.182-0.513c-0.764-0.229-1.527-2.28-2.474-3.177
		c-0.955-0.9-0.763-2.937,0-3.611c0.756-0.672,1.518-1.805,0.947-3.826c-0.569-2.024-0.947-6.524,0.956-7.417
		c1.904-0.9,6.464-0.002,8.744-0.002c2.287,0,6.196,0.933,6.849-0.454c0.948-2.021,1.332-4.264,1.141-6.289
		c-0.193-2.021-3.992-3.822-6.465-4.267c-1.785-0.323-2.065-1.106-1.09-1.606c0.318-0.302,0.997-0.293,2.018-0.38
		c1.161-0.1,1.773,0.589,2.292-0.411h0.019c0.518,0,1.043-0.945,2.086-1.151c2.28-0.449,4.567-1.259,6.278-1.482
		c1.71-0.229,1.71-2.074,1.71-3.42c0-0.311,0.271-0.571,0.658-0.793c0.009-0.008,0.022,0.027,0.031,0.018
		c0.022-0.012,0.035,0.328,0.058,0.315c0.605-0.465,1.807-0.486,2.802-0.486h1.21c0.017,0,2.665-3.387,4.18-4.733
		c0.209-0.185,0.44-0.682,0.688-0.81c1.559-1.066,3.99-0.903,5.944-0.274c0.207,0.065,0.348,0.07,0.474,0.084
		c-0.057-0.526-1.262-1.791-1.785-2.557c-0.76-1.125-0.183-3.555,0.388-4.901c0.155-0.372,0.539-0.587,1.017-0.847
		c1.196-0.851,3.521-0.764,4.285-0.401C419.195,87.969,418.498,90,418.5,92h-0.358c-0.006,0-0.006,0.502,0.021,0.742
		c0.104,0.969,0.591,1.258,1.021,2.258h0.557c0.274,0,0.487,0.338,0.487,0.338L421.754,95c0,0,0,0,2.472,0c1.815,0,2.372,0,3.288,0
		h0.378c0.152,0,0.303-0.569,0.482-0.633c1.9-0.672,3.293,0.083,4.057-0.368c0.688-0.411,2.521,0.001,4.989,1.001h1.066
		c0.566,0,0.938-0.427,1.203-0.505c0.52-0.684-0.053-3.088,0.342-4.326c0.569-1.798,1.711-5.002,3.616-4.782
		c1.901,0.227,3.425,1.542,4.942,0.422c1.521-1.128-2.853-2.713-2.853-3.387c0-0.133,0.172-0.242,0.422-0.329
		c0.339-0.578,3.712-0.6,6.778-0.815c3.196-0.22,5.089-0.011,6.603-0.436c0.695-0.829-1.494-3.381-2.016-3.381
		c-0.561,0-4.374,0.451-6.276,0.228c-1.896-0.227-3.992,1.349-5.699,1.8c-1.712,0.449-2.096-2.696-3.045-4.042
		c-0.954-1.348-1.334-3.807,1.144-5.159c0.867-0.474,1.977-1.132,3.076-1.859c0.101-0.064,0.2-0.1,0.301-0.166
		c1.922-1.289,3.76-2.651,4.225-3.481c0.765-1.348-3.036-0.742-6.648-0.523c-0.671,0.042-1.072,0.74-1.306,0.74h0.122
		c-0.287,1,0.951,2-0.945,4h-0.18c-0.156,1-0.339,0.265-0.55,0.515c-2.924,3.457-4.601,1.92-6.691,3.106
		c-0.243,0.171-0.491,0.719-0.752,0.981c-1.62,1.641-1.537,2.398-0.673,3.398h-0.658c0.49,0,1.519,0.757,2.695,1.186
		c1.034,0.375,1.247,0.814,1.129,1.814h0.309c-0.242,1-0.969,1.656-1.271,2.018c-0.302,0.354-1.231,0.982-1.994,1.982h-0.178
		c-0.766,1-1.423,2-1.227,3h0.365c0.117,2-1.271,1.935-1.746,2.213c-0.296,0.206-0.522,0.066-0.522,0.066s-7.042,1.743-8.373,1.966
		c-1.325,0.228-1.712-1.14-1.325-2.486c0.376-1.352-1.528-4.478-1.711-6.499c-0.069-0.736-0.495-0.505-1.014-0.247
		c-0.528,0.388-1.092,1.986-1.459,1.986h-0.222c-0.287,1-0.495,0.481-0.543,0.81c-0.187,1.348-3.806,1.328-5.895,0.436
		c-2.095-0.899-3.234-4.317-2.851-4.991c0.378-0.674-1.139-4.046-1.139-4.946c0-0.783,3.404-5.848,6.677-7.714
		c0.585-0.374,1.169-0.295,1.733-0.436c2.104-0.521,4.431-1.159,6.501-2.159h0.062c1.327-1,2.528-1.905,3.47-2.756
		c2.474-2.249,3.611-4.856,4.373-5.529c0.241-0.216,1.752-0.715,3.844-1.715h-0.058c2.363-2,5.586-3,8.598-5h0.137
		c2.433-1,4.676-2.013,6.132-2.289c2.562-0.48,6.763,1.289,10.371,2.289h0.94c2.841,1,5.215,2.541,5.954,2.734
		c1.373,0.358,2.285,0.266,4.743,2.266h-0.863c0.708,0,1.558,0.243,2.612,0.698c4.182,1.796,8.137-0.255,10.792,0.195
		c1.116,0.188,2.001,1.106,2.782,2.106h0.606c0.975,1,1.803,1.281,2.724,1.764c0.928,0.489,0.825,0.343-0.117,0.878
		c-0.678,0.5-2.181,1.05-4.431,1.891c-4.185,1.573-7.033,1.16-9.313,0.259c-2.287-0.901-3.611-0.538-1.902,0.81
		c0.424,0.332,0.703,1.397,0.896,1.397h0.479c0.396,1,0.183,1.018,0.307,2.403c0.151,1.569,1.778,0.462,2.771-0.154
		c0.126-0.088,0.229-0.227,0.303-0.283c0.283-0.225,0.428-0.591,0.76-0.675c0.332-0.339,0.752-0.503,2.264,0.628
		c2.043,1.542,2.818,0.714,3.737,0.47c0.472-0.661-0.028-2.594,0.465-3.372c0.571-0.9,2.858-0.87,3.43-1.316
		c0.569-0.446,1.895-1.056,3.036-1.285c1.14-0.228,0.951,2.399,2.095,3.073c0.014,0.007,0.018,0.512,0.03,0.512h0.373
		c0.553,0,0.106-3.457-0.22-4.211c-0.375-0.901-0.753-3.638-0.185-4.317c0.568-0.673,4.564-0.704,5.518,0.197
		c0.176,0.167,0.208,0.331,0.19,1.331h0.341c-0.236,1-1.562,2.834-1.127,4.031c0.035,0.093,0.078-0.031,0.116-0.031h-0.478
		c0.004,0,0-0.449,0.004-0.438c0.569,1.576,1.901-1.243,2.854-2.595c0.159-0.228,0.366-0.393,0.595-0.489
		c1.034-0.908,3.048,0.204,6.221-0.421c0.779-0.154,1.336-0.287,1.781-0.54c1.203-0.813,1.59-1.181,4.135-0.23
		c0.007,0.003,0.012,0.713,0.019,0.713h0.958c1.432,0,1.961,0.193,2.275,0.145c0.128-0.169,0.28-0.89,0.562-1.222
		c1.138-1.346,3.229,0.647,5.312-0.254c1.925-0.825,2.1,0.331,3.288,1.331h0.719c0.42,0,0.865,0,1.309,0h0.098
		c0.995-1,1.918-1.933,2.395-2.494c0.179-0.211,0.488-0.506,0.866-0.506h-0.176c1.077-1,3.634-0.617,4.991-0.415
		c0.473,0.07,0.985-0.585,1.512,0.415h-1.141c1.375,0,2.924,0.698,4.218,0.698c1.52,0,3.99,1.256,3.99,1.256s0.6,0.046,1.338,1.046
		h1.336c0.484,0,0.953,0,1.294,0h0.021c0.002,0,0.009-0.715,0.009-0.718c0.756-0.901-0.191-2.609-3.047-4.186
		c-2.854-1.566-1.71-4.318,0-4.546c1.713-0.227,1.525-1.37,2.854-2.27c1.034-0.693,2.287-2.845,3.508-3.482
		c0.477-0.354,0.954-0.511,1.412-0.308c1.521,0.673,2.854,2.342,4.757,3.466c0.34,0.201,0.531,1.043,0.67,1.043h-0.508
		c0.849,1-0.033,2-0.512,3h0.251c-0.03,0-0.069,0.42-0.091,0.486c-0.243,0.72-0.021,2.514,0.316,4.514h-0.403
		c0.2,1,0.452,1.81,0.678,2.075c0.156,0.187,0.176-0.075,0.104,0.925h0.297c-0.271,1-1.111,2.155-2.136,2.913
		c-0.465,0.341-0.978,1.087-1.457,1.087h-0.135c-1.189,1-2.232,2.646-1.808,2.978c0.011,0.008,0.039,0.022,0.053,0.022h0.474
		c1.343,0,4.608-2.301,4.608-2.301s2.856-3.945,4.185-5.066c1.163-0.988,2.327-0.633,2.854,0.367h0.452
		c0.028,0,0.066-0.581,0.089-0.5c0.387,1.348,2.474,1.209,4.377,0.31c0.084-0.04,0.132-0.141,0.204-0.18
		c0.859-0.751-0.585-1.521-0.745-3.276c-0.19-2.026-3.236-0.911-4.954-0.465c-1.71,0.452-3.043,2.472-3.604,2.472
		c-0.576,0-0.576-1.346-0.193-3.371c0.378-2.021-0.761-3.124-0.761-4.243c0-1.128,0.568-1.091,1.902-3.334
		c0.277-0.471,0.495-0.339,0.672-0.351c0.616-0.698,0.865,0.938,1.001,1.938h-0.383c0.108,1,0.151,1.956,0.227,2.749
		c0.009,0.094,0.032,0.251,0.046,0.251h0.401c0.355,2,1.538,0.233,2.575,0.026c0.012-0.002,0.019-0.298,0.028-0.301
		c0.619-0.731,0.319-2.91,1.142-4.067c0.242-0.344,0.56-0.605,0.929-0.784c1.078-0.787,2.787-0.365,4.366,1.322
		c0.151,0.164,0.272,0.804,0.403,0.804h-0.58c1.691,2,1.613,1.212,3.815,2.075c0.901,0.356,1.469,0.925,1.847,0.925h0.608
		c0.369,1,0.469,0.573,0.565,1.597c0.167,1.816,1.412,1.884,2.352,1.447c0.854-0.743,0.132-3.378-0.426-4.251
		c-0.569-0.901-5.138-2.484-6.662-4.059c-0.738-0.764-0.571-1.121-0.018-1.324c0.384-0.439,1.729-0.362,2.853-0.362
		c1.711,0,4.938,0.661,4.938,0.661s1.889,0.29,3.651-0.71h0.091c0.513-1,1.008-0.591,1.417-0.93c1.555-1.279,2.731-2.07,4.148-2.07
		h-0.274c0.509,0,1.036-0.967,1.62-1.244c1.897-0.899,4.948-1.373,6.851-0.919c1.896,0.445,3.229-0.942,5.131-1.844
		c0.021-0.01,0.041,0.232,0.062,0.221c1.742-1.347,3.779-5.214,4.106-1.214h0.371c0.01,0,0.021-0.022,0.026,0.144
		c0.022,0.724,5.318,1.876,6.081,1.657c0.721-0.215,2.489,0.199,5.091-1.801h0.048c0.005,0,0.014-0.338,0.021-0.342
		c1.51-0.922,2.234-1.908,2.552-2.503c0.081,0.152,0.174,0.259,0.298,0.442c0.736,1.102,3.052-0.917,7.044,1.104
		c2.506,1.273,1.863,0.953,1.32,0.869c0.03,0.068,0.08,0.434,0.174,0.542c0.981,1.161,1.549,0.89,3.391-0.11h0.577
		c0.021,0,0.033-0.009,0.052-0.012c1.916-0.322,3.336,0.012,4.618,0.012h1.971c1.769,1,5.413,0.518,7.081,1.832
		c0.895,0.706,0.533,2.168-0.146,3.168h-0.213c-0.614,1-1.602,2.061-2.092,2.525C647.528,42.688,647.498,43,647.52,43h0.454
		c0.415,0,1.822,0.204,2.37,0.044c0.756-0.227,7.032-0.49,9.885-0.043c2.86,0.45,3.998,1.986,5.323,1.986
		c0.951,0,2.276-0.337,3.242-0.861c0.222-0.15,0.445-0.222,0.589-0.39c0.101-0.118,0.278,0.202,0.502,0.099
		c1.006-0.81,5.236-0.835,6.785-0.835h4.124c1.086,0,2.014,0.017,2.259,0.209c0.521,0.41,1.036,1.791,1.123,3.791h-0.367
		c0.019,0,0.028,0.497,0.028,0.729c0,0.843,0.38,2.271,0.917,2.271h0.564c0.58,1,1.288,0.583,1.918,0.69
		c0.376,0.064,0.845-0.435,1.342-0.747c1.173-0.837,2.438-2.232,3.059-2.525c0.944-0.451,2.085,1.993,2.654,1.32
		c0.573-0.673,5.332,0.203,7.236-0.917c1.895-1.123,3.037-0.008,3.987-0.457c0.951-0.451,2.473-2.926,2.473-3.828
		c0-0.896,0.765-1.57,0-2.918c-0.762-1.348-3.423-0.455-6.277-1.347c-2.089-0.661-1.051-3.34-0.018-3.772
		c0.477-0.434,1.033-0.458,1.33,0.401c0.471,1.373,3.035,0.011,4.938,0.465c0.521,0.123,0.834,0.144,1.045,0.085
		c0.146-0.192,0.217-0.371,0.525-0.437c0.098-0.141,0.224-0.168,0.522-0.168c0.956,0,4.374,1.554,6.272,1.554
		c1.373,0,2.537,1.6,3.089,2.6h-0.541c0.328,0,0.523,0.284,0.523,0.284s-5.325,1.757-6.465,1.757c-0.373,0-0.528-0.041-0.556,0.959
		h0.365c0.089,0,0.563,0.517,1.116,0.517c0.948,0,2.279,0.213,3.61,1.338c1.336,1.124,7.228,0.264,7.984,0.264
		c0.559,0,1.931,0.881,3.519,1.881h-0.758c0.704,1,1.455,0.88,2.211,1.402c1.02,0.703,1.872,1.598,2.521,1.598h0.772
		c0.545,0,0.864,0.437,0.864,0.437S737.769,51,740.975,50h1.859c1.614,0,3.21,0,4.383,0h1.6c0.179,0,0.32-0.234,0.41-0.155
		c0.765,0.673,2.86,1.109,4.379,2.683c1.519,1.574,2.658,0.949,4.753,0.722c2.096-0.228,4.19-0.231,6.085-0.231
		c1.73,0,7.023-0.02,8.843,1.98h-0.647c0.334,0,0.608-0.258,0.768,0.024c1.143,2.023,2.474,1.008,2.474,1.008
		s1.718-3.648,2.475-4.322c0.071-0.062,0.17-0.098,0.268-0.13c0.028-0.031,0.063-0.039,0.089-0.063
		c0.763-0.672,3.234,0.559,4.753,1.451c1.524,0.901,8.938,0.47,10.838,0.925C794.64,53.972,795,54,795.36,55h-0.866
		c1.336,0,2.789,1,2.926,3h0.339c-0.009,0-0.108,0.53-0.411,0.889c-0.756,0.89-0.48,2.111-0.084,3.111h-0.422
		c0.321,1,0.761,2,0.791,3h0.332c-0.009,0-0.002-0.195-0.046-0.06c-0.265,0.837-0.745,0.951-1.329,1.288
		c-0.721,0.558-1.681,0.958-2.641,1.243c-0.184,0.29,0.095,1.53,0.563,1.53h-0.545c0.69,1,2.046,2,2.83,3h0.504
		c0.435,1,0.236,0.759-0.216,0.964c-0.384,0.481-1.531,0.334-2.38-0.094c-1.334-0.673-4.755,0.165-9.129,1.512
		c-4.377,1.348-6.088,4.011-10.649,4.234c-4.566,0.227-2.665-0.239-8.363-0.239C764.506,78.377,763.22,78.659,762.355,79.064z
		 M514.581,114.008c-0.548-1.292-4.033-1.96-4.828-1.657c-0.321,0.267-0.761,0.649-1.32,1.649h-0.079
		c-0.677,0-1.493,0.847-2.332,1.46c-1.519,1.125-4.559-0.913-5.698-0.014c-0.445,0.351-0.812,0.554-1.144,1.554h0.161
		c-1.195,1-1.478,3-0.782,4h-0.456c0.043,0,0.069,0.21,0.124,0.298c0.348,0.574,0.924,1.702,1.576,2.702h0.498
		c1.109,2,2.415,4.055,3.229,4.329c0.308,0.104,0.806,0.671,1.356,0.671h-1.164c1.663,0,4.984,1,3.82,3h0.178
		c-0.004,0-0.004-0.621-0.009-0.616c-1.107,1.177-1.698,1.384-2.339,1.735c-0.578,0.442-1.112,0.561-2.014,0.442
		c-0.073-0.01-0.136,0.312-0.2,0.324c-0.295,0.33-0.435,1.116-0.429,2.116h-0.354c-0.03,1,0.165,2,0.499,3h0.461
		c0.215,1,0.474,0.37,0.76,0.466c1.334,0.45,5.326,1.708,6.659,1.93c0.951,0.16,3.437-0.209,4.718-0.884
		c0.289-0.22,0.479-0.497,0.438-0.778c-0.19-1.35-0.953-6.754-2.473-8.103c-1.523-1.351,2.095-2.705,1.142-3.829
		c-0.953-1.124-2.278-0.677-3.043-2.024c-0.766-1.349-1.139-2.696-2.28-3.599c-1.143-0.9-2.09,0.901-1.903-1.575
		c0.104-1.333,0.927-2.383,1.838-2.876c0.866-0.64,1.9-0.77,2.51-0.049c1.019,1.2,3.838,0.794,4.979,0.216
		C517.406,117.209,515.146,115.351,514.581,114.008z M456.771,131.15c0.378,0.896,2.279-1.835,3.801-1.835
		c1.516,0,4.944,0.662,5.9-0.913c0.245-0.405,0.629-0.654,1.105-0.892c1.326-0.895,3.698-0.564,5.712-0.2
		c0.983,0.179,1.904,0.689,2.767,1.689h-0.808c1.492,0,2.813,1.076,3.962,1.227c1.711,0.227,6.272-0.729,7.797-1.178
		c1.518-0.451,1.142-3.658-1.331-5.224c-2.474-1.575-4.566-4.067-6.846-4.968c-2.175-0.854-2.948-1.703-1.866-2.171
		c0.104-0.113,0.256-0.186,0.508-0.271c0.248-0.083,0.502-0.159,0.748-0.315c0.896-0.689,1.413-1.222,0.036-1.222
		c-1.764,0-3.343,1.122-3.723,2.122h0.275c-0.002,0-0.005-0.54-0.005-0.537c-0.183,1.124-1.331,2.053-2.085,2.503
		c-0.315,0.188-0.829,0.577-1.362,0.907c-0.845,0.578-1.841,1.159-2.229,0.245c-0.569-1.349-2.656-5.004-3.612-5.227
		c-0.841-0.201-2.133,0.108-3.21,2.108h0.22c-0.09,0-0.183,0.06-0.268,0.229c-0.738,1.454-1.558,2.771-2.351,3.771h-0.193
		c-0.486,1-0.973,1.291-1.425,1.646c-0.378,0.296-0.786,1.354-1.138,1.354h0.206c-0.619,1-0.94,2.475-0.232,2.754
		c0.491,0.193,0.552,1.246,0.47,2.246h-0.335C457.185,130,456.771,131.15,456.771,131.15z M465.979,240c-0.177,1-0.286,2-0.25,3
		h0.367c0.073,1,0.373,1.78,1.107,1.976c0.229,0.062,0.481-0.41,0.747-0.552c1.634-1.288,3.469-5.396,2.704-6.844
		c-0.415-0.776-2.582-0.692-3.733-0.072c-0.117,0.101-0.226,0.586-0.287,0.708c-0.126,0.25-0.247,0.784-0.35,1.784H465.979z
		 M468.008,80c0.236,0,0.43-0.677,0.552-0.88c0.773-1.276-2.575-4.073-4.379-3.403c-0.243,0.187-0.446,0.283-0.572,1.283h-0.252
		c-0.041,0-0.088,0.181-0.119,0.284c-0.374,1.222,1.14,1.716,2.669,2.716H468.008z M510.018,48.925
		c1.144,0.455,3.61,0.674,5.704,2.022c1.897,1.222,4.507,1.764,6.021,0.615c0.295-0.16,0.571,0.068,0.795-0.199
		c0.438-0.518,0.565-0.363,0.508-1.363h-0.399c-0.153-1-0.678-1.695-1.216-1.821c-0.442-0.104-0.791-0.179-0.8-1.179h0.374
		c-0.124-1,0.256-2.13,1.729-3.068c0.791-0.502,1.604-1.249,2.433-1.777c1.659-1.036,3.393-2.057,5.199-2.339
		c2.85-0.447,9.321-0.115,11.603,0.559c0.947,0.279,2.086,0.625,3.167-0.375h0.03c1.651-1,3.222-3.081,3.818-4.065
		c0.14-0.235,0.144,0.065,0.092-0.935h-0.465c-0.606-1-3.266-1.771-4.172-0.345c-0.063,0.104-0.189,0.009-0.285,0.099
		c-1.802,1.157-6.146,0.72-7.152,0.321c-1.141-0.45-10.27,1.757-12.172,1.757c-0.513,0-0.94,0.192-1.35,0.505
		c-1.269,0.719-2.188,3.275-4.33,4.36c-0.422,0.214-0.873,1.303-1.329,1.303h-0.08c-2.313,1-4.789,1.971-5.845,2.504
		c-0.065,0.031-0.123-0.213-0.188-0.172c-0.052,0.027-0.121-0.091-0.169-0.067C510.204,45.937,508.88,48.479,510.018,48.925z
		 M704.256,140.106c-0.03,0.008-0.062,0.042-0.094,0.042c-0.571,0-2.908,0.999-4.546,2.065c-0.717,0.437-1.355,0.893-1.709,1.309
		c-1.142,1.348-6.65-1.122-7.413,0c-0.76,1.126-2.271,2.468-3.229,3.362c-0.682,0.345-1.703,0.391-2.3,0.902
		c-0.6,0.299-1.004,0.816-0.75,2.026c0.571,2.698,1.903,5.168,3.043,5.168c0.489,0,1.043,0.351,1.525-0.034
		c0.504-0.28,0.971,0.053,1.242-0.947h-0.297c0.115,0,0.193-1.346,0.193-1.86c0-2.471,2.658,0.248,3.99,0.024
		c0.734-0.122,1.29-0.164,1.737-1.164h0.217c0.355-1,0.637-1.726,0.887-2.449c0.117,0.493,0.452,0.808,1.345,1.072
		c1.049,0.31,1.765-0.041,2.243-0.425c0.834-0.407,1.155-1.366,1.155-1.8c0-0.086,0.087-0.213,0.209-0.313
		c1.157-0.643,3.788-0.729,4.379-1.252c0.721-0.635,3.429-1.833,3.909-1.833h0.2c0.126-1,0.221-0.542,0.247-0.668
		c0.104-0.515,0.096-2.332,0.24-4.332h-0.337c0.113-1,0.31-2.067,0.688-2.246c0.452-0.217,0.98,0.246,1.26-0.754h0.152
		c0.489,0,0.658-0.897-0.296-2.865c-0.225-0.464-0.408-1.135-0.577-1.135h-0.443c-0.474-2-0.786-3-1.189-3h0.485
		c-0.395-1-0.858-1.625-1.702-1.026c-0.03,0.022-0.048-0.252-0.078-0.225c-0.092,0.05-0.172-0.094-0.277-0.019
		c-1.398,0.994-0.569,4.868-1.707,7.562C705.732,137.479,704.932,139.416,704.256,140.106z M651.178,260.83
		c0.262-0.072,0.456-0.202,0.49-0.474c0.196-1.348-2.087-2.731-3.034-2.731c-0.267,0-0.849,0.375-1.525,0.375h-1.334
		c-1.552-1-3.206-1.491-3.206-1.491c-0.69,0.35-1.578,0.963-2.067,1.381c-0.037-0.07-0.062,0.11-0.126,0.11h-0.634
		c-0.078,0-0.117-0.755-0.213-0.817c-2.097-1.347-4.567,0.303-5.332-1.49c-0.184-0.435-0.388-0.691-0.603-0.691h0.529
		c-0.556-1-1.207-1.439-1.768-0.999c-0.297,0.11-0.576,0.026-0.816,0.386c-1.391,2.047,0.378,3.438,0.946,3.885
		c0.568,0.447,2.663,0.818,4.569,0.596c1.088-0.131,2.397-0.451,2.949-0.916c0.078-0.039,0.122-0.105,0.188-0.148
		c0.057,0.229,0.183,0.469,0.474,0.771c1.521,1.572,2.474,2.242,4.755,2.02C647.518,260.383,650.552,261.664,651.178,260.83z
		 M661.205,263.286c-0.345,1.625,1.716,2.934,2.624,2.025c0.287-0.133,0.53,0.688,0.658-0.312h-0.291
		c0.013,0,0.046-0.539,0.052-0.608C664.431,262.146,661.59,261.485,661.205,263.286z M661.012,248.783
		c1.02,0.752,2.626-0.783,3.811-1.783h0.069c0.144,0,0.273-0.547,0.403-0.644c0.374-0.192,0.674-0.359,0.856,0.014
		c0.762,1.574-0.191,2.166,1.14,4.188c1.332,2.023,3.806,1.756,3.806,1.756s-0.002-0.104-0.011-0.246
		c0.223,0.009,0.367,0.33,0.367,0.33S671.405,252,671.12,250h-0.403c-0.222-1-0.574-2-1.117-3h0.504
		c-0.26,0-0.563-1.135-0.934-1.371c-1.351-0.871-2.367-1.989-2.268-2.44c0.218-0.039,0.504-0.125,0.956-0.043
		c1.404,0.252,2.424,0.504,2.952-0.008c0.297-0.176,0.539-0.138,0.656-0.138h-0.277c0.053,0,0.034-1.104-0.094-1.403
		c-0.568-1.35-4.184-0.953-5.332-0.727c-1.139,0.22-2.85-1.038-2.85-1.038c-1.141,0.444-0.947,1.671-1.325,3.912
		C661.205,245.99,659.496,247.658,661.012,248.783z M683.453,232.308c-1.747-0.877-4.939,7.825-2.656,8.498
		c0.653,0.193,1.255,0.194,1.757-0.806h0.22c0.72-1,1.244-3,1.428-5h-0.33C683.991,234,683.883,232.522,683.453,232.308z
		 M652.646,225.086c-3.609,0-3.8,3.373-4.562,4.052c-0.117,0.104-0.241,0.182-0.363,0.264c-0.58,0.324-1.266,0.533-2.33,0.853
		c-0.368,0.108-0.657,0.31-0.902,0.552c-1.036,0.682-1.403,2.082-1.733,3.045c-0.378,1.121-3.037-2.02-3.797-1.129
		c-0.765,0.903-0.195,5.174,1.138,8.771c1.334,3.592,4.755,5.838,5.699,5.838c0.958,0,2.861,0,4.192,0.452
		c1.325,0.444,5.699,1.223,5.51-0.798c-0.008-0.098-0.02,0.017-0.027,0.017h0.378c-0.117-1-0.296-3,0.025-4h-0.291
		c0.213-1,0.587-1.741,1.249-2.444c0.176-0.188,0.352-0.556,0.527-0.556h0.131c1.477-2,2.837-3,2.78-5h-0.356
		c-0.03,0-0.1-0.209-0.226-0.603c-0.228-0.688-0.505-1.397-0.78-1.397h0.463c-0.928-2-1.909-3.621-0.852-4.688
		c0.013-0.015,0.025-0.312,0.038-0.312h-0.107c1.255-1,2.562-1.631,2.562-2.676c0-0.786-1.585,0.676-2.667-0.324h0.578
		c-0.561,0-1.034-1.401-1.169-3.965c-0.004-0.119-0.057-0.035-0.091-0.035h-0.554c-0.168,0-0.386,0-0.647,0h-0.124
		c-0.078,0-0.151-0.562-0.229-0.509c-0.855,0.451-1.837,1.123-1.945,2.01C653.979,224.073,656.26,225.086,652.646,225.086z
		 M662.152,197.448c1.141,2.697,5.139,4.722,4.186,5.847c-0.949,1.121-3.801,3.366-4.186,5.39c-0.124,0.666,0.337,1.125,1.049,0.598
		c0.969-0.577,2.726-2.281,4.01-3.281h-0.163c0.415-1,0.768-1.543,1.004-1.902c1.228-1.859,3.561-1.365,4.37-2.104
		c0.245-0.086,0.438-0.362,0.549-0.584c0.569-1.123,0.569-1.196,0.569-1.196s-2.087-0.195-3.801-0.869
		c-1.68-0.662-3.71,2.657-2.902-1.343h-0.3c0.445-1,1.282-2,2.005-3h0.081c0.964,0,1.837-1.021,1.496-2.624
		c-0.137-0.645-0.351-1.376-0.603-1.376h-0.509c-0.795-1-1.881-2.04-2.289-2.04c-1.331,0,0.193,2.226-1.709,3.798
		C663.108,194.326,661.012,194.75,662.152,197.448z M180.392,38.727c-0.407,0.167-0.736,0.161-0.898,0.618
		c-0.554,1.575,5.076,2.856,4.442,1.058c-0.12-0.338-0.346-0.403-0.608-0.403h0.603C183.087,39,181.338,38.017,180.392,38.727z
		 M20.626,94.031c-0.871,0.241-0.703,2.175-1.561,3.046c-0.097,0.05-0.175,0.581-0.292,0.608C17.95,97.882,17.073,99,16.447,99
		h0.113c-1.13,1-1.819,0.641-0.8,0.944c1.517,0.447,4.938,0.003,5.324-0.671C21.141,99.171,21.196,99,21.25,99h0.29
		c0.336-1,0.606-4.475,0.084-4.679C21.134,94.126,20.835,93.771,20.626,94.031z M633.092,35h-0.183C633.09,35,633.198,35,633.092,35
		z M254.343,114c-0.122,0-0.315,0-0.594,0H254.343z M214.594,73.563c-0.31,0.104-0.502,0.235-0.644,0.376
		c-1.459,0.745,0.234,2.211,1.428,1.651c0.126-0.06,0.22-0.139,0.31-0.218c0.015-0.006,0.031-0.005,0.046-0.012
		C216.998,74.763,216.365,72.962,214.594,73.563z M20.666,80c-0.225,0-0.545-0.358-1.13-0.15c-0.098,0.035-0.147-0.208-0.163-0.139
		c-0.068,0.025-0.116-0.104-0.193-0.077c-0.772,0.276,1.333,1.723,2.089,1.723c0.151,0,0.322,0.443,0.492,0.288
		C22.38,81.446,23.199,80,22.736,80H20.666z M161.215,35.815c-0.007,0.006-0.009,0.02-0.016,0.026
		c-0.142,0.06-0.265,0.126-0.341,0.204c-0.959,0.991,0,4.042-0.381,4.342c-0.376,0.302,0.126,2.258,1.145,1.958
		c0.861-0.252,1.356-2.345,1.954-2.345h0.172c0.05,0,0.102-0.738,0.153-0.796l0,0c0.762,0,4.691-1.355,5.323,0.292
		c0.636,1.643,0.636,1.353,2.411,1.508c1.056,0.086,1.97-0.004,2.569-1.004h0.168c0.515-1,0.854-1.877,0.915-2.227
		c0.125-0.751-0.889-2.554-3.296-2.253C169.581,35.82,162.231,34.77,161.215,35.815z M176.049,43.705
		c-1.014-0.745-4.311-0.498-5.196-0.046c-0.891,0.451-3.551-0.853-4.945,0.195c-0.025,0.019-0.032,0.004-0.053,0.024
		c-0.102,0.051-0.212,0.062-0.303,0.13c-0.879,0.665-0.382,2.836,1.016,2.98c1.395,0.154,3.802-1.052,4.052-0.151
		c0.255,0.9,1.141,4.939,3.425,3.591c0.125-0.074,0.217-0.146,0.328-0.219c0.01-0.005,0.019,0.412,0.028,0.406
		c0.616-0.363,1.047-0.618,1.375-0.618h-0.141c0.68-1,0.78-1.346,1.202-1.444c0.277-0.067,0.276-0.556,0.114-1.556h0.403
		C177.175,46,176.661,44.159,176.049,43.705z M25.835,61.02h0.551c-0.178-0.176-0.194-0.192-0.194-0.192L25.835,61.02z
		 M207.589,71.88c-0.247,0.116-0.491,0.28-0.709,0.565c-0.504,0.655,2.116,1.581,2.728,0.801c0.179-0.056,0.335-0.138,0.418-0.284
		C210.49,72.146,208.845,70.851,207.589,71.88z M740.358,317c-0.26-1-0.582-2-0.964-3h0.443c-0.523-1-1.141-3-1.781-4h-0.456
		c-0.462-1-0.925-2-1.375-3h0.471c-0.562-2-1.101-2.515-1.542-3.321c-0.258-0.47-0.491-0.679-0.708-1.679h-0.459
		c-0.462-1-0.834-2-1.127-3h0.424c-0.545-1-0.828-3-0.88-4h-0.36c-0.005,0-0.002-0.531,0.018-0.751
		c0.121-1.273-2.445-2.249-4.792-2.249h1.387c-1.723-1-3.552-1.026-4.339-1.752c-0.667-0.613-1.101-1.248-1.438-3.248h-0.412
		c-0.243-1-0.442-2-0.646-3h0.403c-0.225-1-0.452-1.967-0.756-2.832c-0.179-0.5-0.415-1.168-0.648-1.168h-0.463
		c-0.58-1-1.302-2-2.089-3h0.541c-0.669-1-1.375-1.438-2.096-2.377c-0.391-0.511-0.74-1.623-1.054-1.623h-0.46
		c-0.426-1-0.786-2-1.096-3h0.436c-0.565-2-0.956-3.769-1.247-3.537c-0.052,0.039-0.115-0.213-0.183-0.082
		c-0.062-0.062-0.121-0.265-0.175-0.222c-0.567,0.445-2.279,6.879-0.952,8.898c1.33,2.023-0.571,6.318-1.52,9.02
		c-0.673,1.895-2,1.923-3.39-0.077h0.623c-0.675,0-1.366-1.021-2.017-1.479c-1.425-1.013-3.271-1.521-4.668-2.521h-0.619
		c-0.352,0-0.698-0.556-0.962-0.864c-0.419-0.494-0.328-1.136-0.066-2.136h0.287c0.387-1,1.363-3,1.562-4h-0.317
		c0.026-1,0.004-1.351-0.134-1.578c-0.952-1.571-6.086,0.126-6.655,0.126c-0.428,0-1.175-1.548-2.003-1.548h0.617
		c-0.355-1-0.731-1.293-1.108-1.293c-0.148,0-0.267-0.254-0.37-0.117c-0.836,0.03-0.949,3.052-0.953,4.312
		c-0.099-0.129-0.208,0.099-0.343,0.099h-0.534c-0.491-1-1.16-2.203-1.962-3.149c-1.719-2.021,0.185,0.986-1.526,3.012
		c-1.71,2.02-1.139,1.668-1.903,3.914c-0.654,1.955-2.036,2.225-3.512,0.225h0.586c-0.295,0-0.593-1.137-0.893-1.531
		c-1.222-1.6-2.05-1.514-2.844-0.947c-0.448,0.256-0.875,0.531-1.326,0.799c-1.112,0.658-2.039,4.226-2.61,5.232
		c-1.265,0.305-5.83-1.682-6.698-0.656c-0.014,0.016-0.02,0.041-0.033,0.059c-0.114,0.048-0.254,0.066-0.322,0.148
		c-0.947,1.119,0.158,8.35,0.158,9.246c0,0.067-0.062,0.108-0.103,0.162c-1.063,0.381-3.799,0.87-4.863,1.771
		c-0.062,0.052-0.135,0.719-0.202,0.719h0.021c-0.056,0-0.128-0.528-0.176-0.489c-1.333,1.125-3.421,0.154-4.754,0.154
		c-1.334,0-5.894,4.12-7.415,5.241c-1.521,1.129-4.114,5.096-3.351,6.221c0.754,1.125,4.872,3.781,3.919,4.237
		c-0.948,0.445-1.521,3.574,0.761,6.268c2.279,2.697,1.521,3.36,1.712,4.712c0.189,1.343,1.138,1.794,2.662,4.035
		c1.521,2.251-2.662,4.046-3.231,5.396c-0.569,1.349,1.333,3.366,2.472,4.491c1.139,1.119,3.989,0.445,5.708-0.229
		c0.688-0.271,1.4-0.719,2.085-1.177c0.007-0.003,0.014-0.005,0.019-0.01l0,0c1.016-0.68,1.963-1.37,2.641-1.505
		c1.149-0.225,7.619,1.896,7.619,1.896s0.018-0.126,0.048-0.33c0.178,0.057,0.31,0.675,0.31,0.675s0.009,0.415,0.021,0.415h-0.321
		c0.088-1,0.273-2,0.551-3h0.306c0.354-2,0.873-3.774,1.534-4.666c0.02-0.024,0.05-0.334,0.068-0.334h-0.087
		c1.567-1,5.179-0.219,5.179-0.219s1.709-1.487,6.269-2.615c4.569-1.12,2.667,1.059,4.378,1.73c1.708,0.674,3.988,1.083,5.321,2.215
		c1.334,1.123,0,3.801-0.19,4.922c-0.188,1.125,3.236,1.225,3.428,0.105c0.096-0.556,0.378-1.14,0.859-1.14h0.2
		c0.469-1,1.168-1.84,2.152-2.557c1.592-0.965,0.235,1.909,0.969,3.852c0.765,2.021,1.903-2.881,1.903-0.583
		c0,0.674,0.569,1.276,0.757,1.95c0.194,0.674,2.663,0.864,2.663,3.105c0,2.245,0,3.584,0.572,4.028
		c0.569,0.449,3.609-0.009,4.943,2.688c0.695,1.404,1.283,1.39,1.799,0.91c0.627-0.253,1.15-1.375,1.604-2.045
		c0.027-0.044,0.073-0.059,0.107-0.09c1.059-0.334,3.073,0.904,3.719,1.665c0.328,0.388,0.916,0.091,1.694-0.428
		c0.417-0.255,0.905-0.606,1.455-0.98c0.758-0.494,1.611-0.991,2.559-1.29c2.851-0.895,2.473-0.323,3.233-1.668
		c0.243-0.436,0.47-0.561,0.719-1.561h0.283c0.403-1,0.873-3,1.59-4h-0.252c0.213-1,0.438-0.888,0.697-1.294
		c0.327-0.517,0.818-1.706,1.394-1.706h0.143c1.242-1,2.963-3,4.349-5h-0.151c0.838-1,1.523-2,1.867-3h0.27
		c0.205,0,0.328-0.787,0.328-1.283c0-0.764-0.21-1.717-0.516-2.717H740.358z M713.1,118.914c-0.235,0.068-0.437,0.032-0.621,0.189
		c-1.197,0.606-1.638,2.887-1.638,3.515c0,0.268-0.843,1.382-1.75,1.382h-0.078c-0.27,0-0.529-0.051-0.77,0.113
		c-1.044,0.628-1.833,1.204-1.018,2.062c1.712,1.797,3.429,0.361,6.086,0.134c2.659-0.223,5.14-1.164,5.14-1.164
		s2.275,0.454,3.144-0.454c0.362-0.233,0.628,0.31,0.646-0.69h-0.362c-0.009,0,0.015-0.483-0.005-0.564
		c-0.571-2.249-4.756-2.315-5.518-2.088c-0.246,0.074-0.561,0.652-0.914-0.348h0.605C715.278,121,714.242,118.578,713.1,118.914z
		 M727.072,347h-0.035c-0.49,0-1.431-0.164-2.365,0.432c-0.03,0.021-0.061-0.292-0.091-0.273c-0.978,0.63-1.938,1.095-2.353,0.995
		c-0.949-0.223-3.044-1.204-3.044-1.204c-0.091,0.104-0.135,0.152-0.203,0.251c-0.09-0.036-0.152-0.085-0.152-0.085
		c-2.096,2.472,2.095,2.462,1.522,4.934c-0.566,2.475,2.851,2.005,3.804,1.559c0.46-0.221,1.237-0.605,1.872-2.605h0.252
		c0.715-1,1.286-3.211,1.079-3.938C727.312,346.898,727.211,347,727.072,347z M676.218,206h-0.808c-0.222,0-0.445-0.754-0.702-0.774
		c-0.764-0.063-3.231,4.424,0.186,4.196c0.628-0.039,1.062,0.204,1.413-0.044C677.992,208.638,677.649,207,676.218,206z
		 M243.922,210h2.027C245.337,210,244.604,210,243.922,210z M720.708,251.896c-0.378-0.371-0.738-0.896-1.148-1.896h-0.502
		c-0.752-1-1.718-2-3.286-3h0.981c-0.304,0-0.634-0.61-0.994-0.694c-2.854-0.677-3.609-1.408-6.65-3.203
		c-0.309-0.183-0.669-0.103-1.048-0.103h-1.016c-3.357-1-8.215-1.456-8.375-0.505c-0.005,0.027-0.009,0.314-0.014,0.342
		c-0.039-0.035-0.069,0.163-0.121,0.163h-0.63c-0.317,0-0.78-1.113-1.52-1.403c-2.277-0.904-3.989,0.26-4.559-1.316
		c-0.074-0.2-0.156-0.279-0.252-0.279h0.465c-0.487-1-1.354-1.896-2.459-1.141c-0.421,0.205-0.878,0.293-1.368,0.875
		c-1.432,1.686-2.096,1.668,1.141,2.342c3.228,0.674,4.186,0.607,2.853,2.4c-1.334,1.797-2.283,4.01-1.143,4.231
		c1.143,0.229,4.561-0.911,4.94-0.017c0.382,0.902-0.759,1.117,3.047,1.793c3.802,0.68,4.562,2.246,5.323,3.14
		c0.628,0.745,2.271,2.851,1.966,3.562c-0.035,0.004-0.046,0.029-0.087,0.029c-0.474,0-0.951,0.225-1.368,0.526
		c-1.13,0.614-1.964,1.993-1.078,2.17c1.14,0.222,4.559-0.673,4.754,0c0.19,0.674,2.094,4.946,3.986,4.722
		c0.322-0.039,0.613,0.217,0.896-0.006c0.052-0.027,0.109,0.371,0.163,0.371h-0.092c0.774-1,1.409-2,1.952-3h0.243
		c0.442-1,0.829-2.148,1.187-2.574c0.078-0.092,0.202-0.382,0.312-0.467c1.435-0.775,4.153-1.088,4.468,0.607
		c0.388,2.022,1.525,3.994,3.809,5.345c2.138,1.262,4.583,2.474,5.046,1.7c0.236-0.039,0.406,0.271,0.449,0.033
		c0.062-0.396-0.067-0.646-0.319-1.646h-0.421c-0.326-1-0.83-2-1.41-3h0.537c-0.328,0-0.685-0.647-1.054-0.813
		c-0.906-0.4-2.207-2.187-3.117-3.187h-0.504c-0.545-1-0.916-1.854-0.916-2.445c0-0.194-0.037-0.555-0.102-0.555h0.397
		C723.786,253,721.771,252.935,720.708,251.896z M793.093,339c-0.226,0-0.465-0.383-0.669-0.383c-0.352,0-0.625,0.383-0.979,0.383
		h-1.102c-0.227,0-0.472-0.203-0.77-0.399c-1.611-1.06-1.387-0.601-2.303-2.601h0.47c-0.085,0-0.172-0.123-0.282-0.346
		c-0.726-1.429-1.07-2.654-1.712-3.654h-0.625c-0.326,0-0.717-0.825-1.253-0.506c-0.766,0.445,0,2.637,0.76,3.524
		c0.763,0.902,1.141,3.903,0.949,4.806c-0.188,0.896-3.423,1.951-1.902,3.068c1.524,1.133,4.374-0.035,3.996,1.312
		s-1.902,3.133-0.19,3.576c0.657,0.174,1.146,0.633,1.542,0.236c0.529-0.322,0.926-1.02,1.267-1.02h-0.248
		c0.159-1,0.315-0.727,0.48-1.063c0.337-0.693,0.641-1.937,0.98-1.937h0.23c0.465-1,0.985-1.859,1.803-2.415
		c0.869-0.582,0.6-1.585,0.104-2.585h-0.547V339z M798.106,280.875c-0.409-0.16-0.917-0.114-1.453,0.263
		c-1.77,0.961-4.045,4.762-4.045,4.762c1.384,0.623,3.352,0.102,4.528-1.898h0.151C798.358,283,798.914,281.194,798.106,280.875z
		 M668.788,208.14c-0.07,0.03-0.148-0.074-0.232,0.027c-0.042,0.016-0.083-0.086-0.124-0.068c-0.646,0.278-2.279,4.226-0.187,4.226
		c2.089,0,5.699,1.018,4.938-0.11c-0.361-0.54-0.993-1.213-1.777-2.213h0.543C671.062,209,669.961,207.64,668.788,208.14z
		 M768.821,297.135c0.137-0.815-0.146-1.135-1.641-2.135h-0.815c-0.475,0-1.02-1.045-1.705-1.224c-3.423-0.898-1.146,0.371,0,2.396
		c0.919,1.623,2.564,2.744,3.373,1.94C768.411,297.979,768.711,297.795,768.821,297.135z M783.812,347h-0.615
		c-0.435-1-0.79-1.266-0.855-1.035c-0.115,0.408-0.442,0.358-0.829,0.623c-0.374,0.229-0.783,0.294-1.192,0.58
		c-0.351,0.216-0.696,0.371-1.015,0.68c-1.141,1.127,0,1.535-3.235,3.783c-3.234,2.248-7.228,4.694-7.988,6.714
		c-0.754,2.027,0.762,3.141,3.808,3.363c1.987,0.147,2.354,1.212,2.951,0.68c0.317-0.124,0.599-0.388,1.14-0.388H775.8
		c0.145-1,0.28-0.382,0.463-0.616c0.697-0.896,1.375-2.384,2.058-2.384h0.131c1.438-2,2.893-3.076,4.633-4.652
		c0.023-0.021,0.041-0.348,0.062-0.348h-0.145c0.915-1,1.451-2,1.76-3h0.28c0.501-1,0.515-2.365,0.515-2.365
		S784.618,347,783.812,347z M687.023,270h0.508C687.11,269,687.023,269,687.023,270z M660.811,225h0.54
		C661.303,225,661.104,225,660.811,225z M506.669,273h-0.481c-0.271-1-0.578-1.461-0.927-1.578c-2.385-0.803-2.66,2.563-4.561,5.033
		c-1.299,1.685-2.672,2.957-3.664,3.655c-0.302,0.168-0.56,0.162-0.736,0.109c-0.321-0.096-1.251,0.131-2.118,0.725
		c-1.312,0.756-2.694,2.234-1.848,4.377c1.322,3.371,1.138,6.734-0.191,8.309c-1.334,1.574,1.139,6.059,0.761,8.534
		c-0.385,2.467,0.568,4.036,3.235,4.036c1.336,0,2.242-0.284,2.954-0.938c0.89-0.617,1.503-1.265,2.154-2.935
		c0.096-0.243,0.152-0.329,0.235-0.329h-0.28c0.327-1,0.593-2,0.823-3h0.299c0.372-1,0.722-3,1.33-4h-0.271c0.36-1,0.697-2,1.013-3
		h0.29c0.439-2,0.835-3,1.164-5h-0.295c0.175,0,0.33-1.216,0.465-1.532c0.142-0.329,0.314-0.468,0.495-1.468h0.284
		c0.367-1,0.771-2,0.979-4h-0.321c0.096-1,0.139-1.575,0.087-2.212c-0.018-0.25-0.048-0.788-0.078-0.788h0.378
		C507.677,275,507.283,274,506.669,273z M219.786,172.222c-0.328,0.042-0.555-0.014-0.731,0.155c-1.258,0.52-0.773,2.828,1.14,2.418
		c1.625-0.349,1.291-0.796,0.265-1.796h0.728C220.841,173,220.353,172.146,219.786,172.222z M334.959,50h-0.471
		c-0.305-1-0.58-1.735-0.918-2.494c-0.058-0.131-0.126-0.506-0.196-0.506h0.449c-0.404-1-0.987-3.477,0.027-4.369
		c0.174-0.08,0.351-0.36,0.586-0.389c2.167-0.267,6.019,2.313,6.764,1.23c0.325-0.078,0.514,0.262,0.489-0.238
		c-0.013-0.27-0.01-0.234-0.017-0.234h-0.36c-0.018-1,0.022-2,0.136-3h0.321c0.108-1,0.294-2.173,0.616-2.795
		c0.416-0.804,1.112-1.205,1.44-2.205h-0.231c0.092,0,0.075-0.734-0.17-0.87c-0.817-0.445-1.858,0.751-2.669-1.497
		c-0.1-0.27-0.16,0.367-0.195-0.633h0.414c-0.399-2,0.913-3.196,1.756-4.021c0.043-0.041,0.133,0.021,0.193,0.021h-0.138
		c0.592-1,1.6-2,2.767-3h0.135c1.315-1,2.833-3.36,4.145-4.254c0.357-0.22,0.701,0.063,1.008-0.039
		c1.573-0.532,2.842-1.707,3.253-2.707h0.265c0.391-1,0.329-2.545-0.5-2.877c-1.678-0.68-4.875-2.186-7.271-0.615
		c-0.378,0.2-0.743,0.263-1.08,0.595c-2.436,2.402-3.825,5.28-6.606,4.533C337.734,19.322,336.99,19,336.394,18h0.481
		c-0.843-2-1.378-4-2.232-5h-0.504c-0.01,0-0.016-0.045-0.026-0.057c-0.634-0.819-0.982-1.943-1.21-2.943h0.405
		c-0.378-1-0.445-3-0.759-4h-0.431c-0.244-1-0.623-1.783-1.332-1.651c-2.437,0.45-2.437,0.12-2.437,0.12s-2.853-0.106-4.616,0.34
		C323.068,4.978,322.475,5,321.929,6h-0.1c-1.138,0-2.045,0.514-2.881,0.291c-2.598-0.697-4.93,0.579-5.586,0.748
		c-4.226,1.093-7.827,0.098-9.742-0.458c1.553,0.119,3.86,0.116,5.868-0.238c2.759-0.486,7.397-1.641,9.674-2.088
		c2.277-0.446,0.445-0.892-0.36-0.998C317.559,3.092,316.038,3,314.438,3h1.38c-2.452-1-5.21-1.872-7.559-2.013
		c-2.762-0.164-4.542,1.147-7.299,1.229C298.704,2.285,296.172,2,293.915,3h1.087c-1.814,0-3.532,0.663-4.897,1.656
		C289.267,5.265,288.349,5,287.491,6h-0.344c-1.308,0-2.35-0.117-2.491,0.064c-0.02,0.026-0.04-0.266-0.06-0.238
		c-0.147,0.047-0.259-0.073-0.296-0.026c-1.387,1.795-2.662,6.643-3.936,5.448c-0.432-0.405-0.742-0.248-1.028-1.248h0.471
		c-0.616-1-1.072-2.905-2.215-2.061c-0.035,0.025-0.042-0.15-0.074-0.124c-0.094,0.043-0.178-0.05-0.282,0.027
		c-1.627,1.197-0.119,4.137-1.514,6.235c-0.162,0.246-0.365,0.425-0.588,0.607c-1.748,1.093-4.585,0.79-5.542,0.173
		c-1.159-0.746-2.317-1.354-6.956-1.058c-2.984,0.195-6.126,1.01-7.729,2.043c-1.151,0.626-1.744,1.35-1.323,2.077
		c0.388,0.668,0.198,1.229-0.233,1.628c-0.767,0.468-1.867,1.322-2.306,0.837c-0.064-0.07-0.172,0.613-0.269,0.613h-0.964
		c-0.512,0-1.093-0.353-1.609,0.001c-1.021,0.597-1.921,1.172-1.803,2.085c0.233,1.795-0.581,3.708-2.549,3.257
		c-1.975-0.45-3.365,0.958-3.481,2.452c-0.027,0.353-0.304,0.632-0.698,0.927c-1.356,0.823-3.57,1.636-3.812,1.636
		c-0.223,0-2.554,0.641-3.73,0.641h0.741c-1.322,1-2.424,0.255-1.311,1.213c1.395,1.201,2.205,0.296,3.944,0.742
		c1.735,0.448,3.127,3.668,4.056,4.118c0.729,0.354,1.661,0.1,2.313-0.442c0.325-0.186,0.623-0.103,0.825-0.416
		c0.309-0.478,0.68-1.215,0.961-2.215h-0.288c0.21,0,0.358-1.617,0.358-1.617s0,2.829,1.393,3.426
		c1.39,0.604,4.869-0.528,5.798-0.379c0.926,0.146,6.375,1.006,7.881,1.902c1.508,0.901,5.213,1.481,6.26,3.425
		c1.041,1.947,1.159,8.677,1.735,9.427c0.159,0.206,0.427,0.519,0.735,0.268c0.473-0.17,1.168-0.452,1.742-1.452h-0.197
		c0.324,0,0.599-1.328,0.735-1.546c0.464-0.755,2.902-0.511,3.711,0.532c0.81,1.05,2.663,3.493,2.55,4.541
		c-0.12,1.046-0.465,2.641-1.162,2.042c-0.691-0.6-1.853,0.221-1.388-0.979c0.03-0.078,0.055,0.409,0.083,0.409h0.282
		c0.458-2,0.673-4-0.242-4c-0.93,0-1.74,0-1.74,0s-0.989-0.891-1.972-0.092c-0.433,0.242-0.888,0.383-1.278,1.143
		c-1.163,2.247-0.235,4.358,0.578,4.358c0.809,0,2.666-0.069,2.666,0.522c0,0.604-1.97,2.368-1.857,3.415
		c0.119,1.051,1.624,4.625,2.088,5.376c0.461,0.745,2.898,1.489,3.589,1.639c0.047,0.01,0.05,0.017,0.072,0.027
		c-0.198,0.077-0.413,0.18-0.582,0.319c-0.41,0.188-0.813,0.482-0.532,0.993c0.585,1.05,1.507,3.59,2.783,4.191
		c1.274,0.604,4.865,3.296,5.331,4.496c0.465,1.198,3.247-0.896,3.831-1.047c0.577-0.146,0.459,3.145,2.087,3.296
		c1.141,0.102,1.771,0.482,2.527-0.112c0.064-0.041,0.128,0.475,0.193,0.475h-0.026c0.269,0,0.557-0.513,0.896-0.84
		c0.665-0.644,0.928-1.16,1.038-2.16h0.313c0.174-1,0.097-2.388,0.161-3.158c0.069-0.785,0.071-1.739,0.345-2.086
		c0.198-0.043,0.455-0.172,0.807-0.068c1.506,0.447,2.316-0.088,2.203-1.583c-0.032-0.428-0.156-0.106-0.265-1.106h0.41
		c-0.216,0-0.425-1.972,0.18-2.496c0.193-0.09,0.425-0.307,0.718-0.362c1.229-0.225,2.163-0.902,2.979-1.45
		c0.236-0.153,0.462-0.332,0.68-0.476c0.53-0.329,1.032-0.593,1.559-0.593c1.508,0,5.678,1.233,6.143,0.481
		c0.212-0.34,0.744-1.105,1.376-2.105h0.229c0.562-1,1.22-2.583,1.82-3.131c0.1-0.053,0.204-0.375,0.297-0.386
		c1.275-0.155,4.624,0.454,7.638-0.146c3.015-0.596,6.263-2.904,7.304-2.758c1.042,0.147,3.591,0.813,2.782-0.081
		c-0.266-0.296-0.575-0.497-0.927-0.497h0.54c-0.742-1-1.699-2.339-2.967-2.339c-0.889,0-1.396-1.661-1.62-2.661h-0.389
		c-0.167-1-0.125-2.426,0.083-2.426c0.464,0,4.696,1.561,4.583,3.06c-0.112,1.501,0.697,3.34,3.015,2.747
		c0.417-0.108,0.722-0.334,0.98-0.53c1.603-0.815,1.293-2.271,0.883-2.808C335.116,49.933,335.037,50,334.959,50z M220.143,190.797
		c-1.43,0.702-0.978,4.211,1,3.519c0.276-0.096,0.488-0.239,0.657-0.409c1.618-0.95,0.549-3.814-1.06-3.467
		C220.496,190.492,220.304,190.626,220.143,190.797z M678.681,217.198c-0.57-1.572-3.047-4.146-3.047-4.146
		c-0.087,0.135-0.149,0.059-0.231,0.18c-0.076-0.069-0.124-0.193-0.124-0.193c-0.974,1.48-1.563,2.248-2.017,2.646
		c-0.567,0.256-0.994-0.216-2.002-0.692c-0.822-0.39-1.851-0.072-2.709,0.515c-1.312,0.734-2.38,2.139-2.023,2.848
		c0.57,1.121,4.762-0.229,5.71,1.793c0.946,2.021,0.946,2.244,2.85,1.793c0.331-0.078,0.656,0.41,0.977,0.192
		c0.694-0.368,1.354-1.133,1.849-1.133h-0.213c0.593-1,0.898-2.142,0.628-2.899c-0.012-0.025-0.028-0.101-0.042-0.101h0.422
		C678.691,218,678.696,217.241,678.681,217.198z M237.284,185.562c-1.521-0.449-3.231-0.24-4.371-0.016
		c-0.214,0.042-0.51,0.094-0.834,0.313c-1.377,0.768-3.897,3.337-3.897,3.337s2.09,0.417,3.419,0.417
		c1.333,0,2.096,0.886,3.235,1.561c1.141,0.674,3.235-0.907,3.991-0.907c0.623,0,1.37,2.282,1.727,1.364
		c0.241,0.087,0.43,0.369,0.515-0.631h-0.339c0.075-1-0.367-2-1.006-3h0.554C239.461,187,238.204,185.835,237.284,185.562z
		 M675.006,259.545c-0.261,0.108-0.502,0.062-0.684,0.351c-1.14,1.799-3.227,3.494-3.034,5.067c0.16,1.335,1.383,1.197,2.465,0.447
		c0.387-0.238,0.769-0.41,1.101-0.41h-0.079c0.413,0,0.692-1.06,0.692-1.06s3.047-0.246,3.047-1.822c0-0.104-0.048-0.118-0.07-0.118
		h0.405C678.748,261,676.281,258.457,675.006,259.545z M631.348,255c0.097-1,0.167-0.862,0.167-1.313c0-1.109,0.08-2.687,0.25-3.687
		h-0.32c0.198-1,0.515-2,0.964-3h0.224c0.067,0,0.135-0.59,0.211-0.694c0.953-1.353,0.569-2.986-0.946-2.756
		c-0.573,0.085-1.116,0.45-1.707-0.55h-0.557c-0.726-1-1.526-2-2.535-3h0.567c-0.344,0-0.699-0.994-1.095-1.313
		c-1.485-1.218-2.764-1.687-4.044-3.687h-0.597c-0.771,0-1.546-1.113-2.371-2.17c-0.09-0.115-0.188,0.17-0.279,0.17h0.562
		c-1.48-2-3.163-4-4.592-5h-0.632c-0.651,0-1.256-1.072-1.716-1.551c-0.619-0.638-1.36-1.449-2.088-1.449h0.812
		c-1.216-1-2.476-1.422-3.121-1.271c-0.222,0.051-0.357-0.076-0.445,0.045c-2.071,0.683,3.521,5.258,4.081,5.918
		c0.571,0.675,5.706,5.783,5.706,8.258c0,2.472,1.655,10.133,2.606,11.031c0.951,0.903,7.472,3.033,8.233,4.83
		c0.664,1.562,2.049,2.188,2.392,1.188H631.348z M675.277,235h-0.373c-0.031,0-0.085-0.185-0.196-0.185
		c-0.195,0-0.684,0.185-1.312,0.185h-0.86c-1.75,1-3.787,0.541-4.129,0.678c-0.568,0.224-3.996-0.581-3.996-0.581
		c-0.076,0.09-0.115,0.11-0.176,0.199c-0.11-0.021-0.182-0.066-0.182-0.066c-1.321,1.569-0.378,3.129,1.71,2.908
		c2.095-0.227,6.473-0.91,7.419-0.91c0.175,0,0.363,0.137,0.548-0.024C674.429,236.952,675.219,236,675.277,235z M666.883,171.993
		c-0.293,0.053-0.565,0.007-0.832,0.192c-2.524,1.164-3.95,7.376-1.803,7.165c0.274-0.027,0.548,0.197,0.817-0.018
		c0.964-0.487,1.896-1.332,2.419-3.332H667.2c0.371-1,0.479-2,0.158-3h0.456C667.676,173,667.387,171.902,666.883,171.993z
		 M620.292,217.576c-0.649-1.232-2.445-3.576-3.522-4.576h-0.577c-0.378,0-0.63-1.019-0.63-1.019
		c-1.519,0.226-1.519,3.408-0.763,4.533c0.763,1.121,2.287,0.354,3.233,4.394c0.956,4.047,2.857,8.047,3.613,9.622
		c0.762,1.562,4,3.789,5.138,4.912c0.575,0.57,1.297,0.693,1.773,0.26c0.369-0.182,0.675,0.298,0.795-0.702h-0.316
		c0.035,0,0.005-0.088-0.156-0.375c-0.341-0.601-0.829-1.625-1.285-1.625h0.497c-0.623-2-1.223-2.397-1.338-3.344
		c-0.048-0.402-0.15-0.656-0.293-1.656h-0.438c-0.266-1-0.655-2-1.169-3h0.458c-0.354-1-0.749-1.342-1.216-2.17
		c-0.485-0.861-0.948-1.83-1.391-1.83h-0.538c-0.864-1-1.625-1.758-2.232-2.899c-0.014-0.025-0.039-0.101-0.053-0.101h0.495
		C620.351,218,620.32,217.629,620.292,217.576z"/>
</g>
</svg>
